<?xml version="1.0" standalone="no"?>
<!DOCTYPE svg PUBLIC "-//W3C//DTD SVG 20010904//EN"
 "http://www.w3.org/TR/2001/REC-SVG-20010904/DTD/svg10.dtd">
<svg version="1.0" xmlns="http://www.w3.org/2000/svg"
 width="3508.000000pt" height="2480.000000pt" viewBox="0 0 3508.000000 2480.000000"
 preserveAspectRatio="xMidYMid meet">
<metadata>
Created by potrace 1.16, written by Peter Selinger 2001-2019
</metadata>
<g transform="translate(0.000000,2480.000000) scale(0.100000,-0.100000)"
fill="#000000" stroke="none">
<path d="M10280 20423 c-52 -4 -170 -32 -185 -43 -30 -22 -223 -48 -411 -54
-113 -4 -164 -10 -205 -24 -30 -11 -83 -25 -118 -31 -35 -7 -110 -27 -165 -45
-56 -18 -141 -39 -190 -46 -71 -11 -96 -19 -120 -41 -23 -19 -47 -28 -91 -33
-76 -9 -135 -28 -216 -70 -35 -18 -77 -36 -94 -40 -74 -18 -204 -73 -242 -103
-27 -21 -52 -33 -73 -33 -34 0 -96 -23 -120 -45 -8 -7 -44 -26 -80 -41 -36
-15 -73 -34 -82 -42 -9 -7 -43 -26 -75 -42 -32 -15 -73 -40 -92 -54 -19 -14
-43 -26 -53 -26 -10 0 -35 -16 -56 -35 -21 -19 -59 -43 -83 -53 -24 -11 -50
-27 -58 -36 -7 -9 -32 -25 -55 -35 -22 -10 -54 -33 -71 -50 -16 -17 -46 -36
-67 -42 -22 -5 -52 -25 -70 -44 -17 -19 -36 -35 -41 -35 -11 0 -64 -43 -145
-117 -31 -29 -62 -53 -69 -53 -17 0 -99 -69 -192 -161 -42 -41 -84 -80 -94
-85 -26 -15 -377 -362 -377 -373 0 -11 -61 -86 -115 -143 -19 -20 -35 -42 -35
-48 0 -6 -31 -43 -68 -83 -37 -40 -82 -93 -99 -118 -17 -25 -38 -51 -47 -58
-8 -7 -20 -29 -27 -49 -7 -20 -38 -67 -70 -103 -33 -37 -59 -71 -59 -77 0 -6
-21 -41 -46 -79 -67 -99 -184 -318 -184 -344 0 -9 -7 -23 -16 -30 -9 -7 -32
-45 -50 -82 -18 -38 -38 -75 -42 -81 -5 -6 -17 -36 -27 -66 -10 -30 -35 -86
-55 -125 -21 -38 -46 -95 -55 -125 -9 -30 -30 -82 -45 -116 -16 -33 -32 -78
-36 -100 -3 -21 -12 -46 -18 -54 -21 -26 -45 -94 -49 -140 -2 -25 -16 -70 -30
-101 -31 -65 -47 -139 -47 -219 0 -57 -25 -148 -53 -192 -20 -29 -54 -241 -66
-402 -5 -66 -17 -179 -26 -251 -24 -183 -16 -773 14 -1015 11 -91 25 -232 32
-315 11 -136 15 -154 41 -197 36 -59 57 -138 67 -254 6 -69 13 -99 30 -122 27
-38 46 -92 55 -157 4 -27 16 -64 27 -81 10 -17 19 -39 19 -49 0 -32 43 -160
60 -180 9 -11 23 -49 29 -85 8 -42 23 -80 42 -107 32 -46 72 -130 83 -178 10
-40 47 -116 97 -195 23 -36 46 -78 52 -95 5 -16 22 -46 37 -65 44 -59 90 -136
90 -152 0 -18 34 -70 73 -112 15 -16 27 -34 27 -40 0 -6 17 -32 38 -58 22 -26
54 -70 73 -100 18 -29 52 -75 75 -103 23 -27 49 -67 57 -87 8 -20 26 -43 39
-52 12 -8 41 -41 63 -72 22 -32 92 -110 155 -173 64 -64 175 -177 248 -251
153 -157 343 -333 388 -360 18 -10 45 -35 60 -55 16 -21 51 -47 79 -60 28 -13
79 -46 115 -74 101 -79 113 -87 150 -106 19 -10 60 -37 90 -61 30 -23 93 -62
139 -85 47 -23 104 -59 127 -81 22 -21 48 -38 56 -38 9 0 26 -8 39 -18 13 -10
57 -34 97 -52 39 -18 77 -39 82 -45 6 -7 39 -23 73 -36 34 -12 75 -31 90 -42
16 -11 59 -30 96 -42 37 -13 89 -37 116 -54 27 -17 63 -31 79 -31 17 -1 42 -7
56 -15 74 -43 98 -5 95 150 -1 61 -3 876 -4 1812 l-2 1703 -22 25 -22 25 -853
1 c-997 2 -939 -5 -828 93 36 32 82 62 101 67 19 6 45 20 58 33 31 33 177 136
192 136 7 0 42 21 79 48 144 103 174 124 212 144 21 11 56 35 76 52 86 71 108
87 140 98 18 6 66 34 107 62 40 28 99 65 130 81 31 17 93 60 138 97 45 38 99
76 120 85 21 10 62 36 92 58 105 78 116 85 137 85 30 0 65 30 109 95 35 51 39
62 39 118 0 34 -1 565 -2 1180 -2 1200 -3 1170 48 1197 14 8 31 8 53 1 20 -6
342 -8 862 -6 519 1 837 -1 848 -7 11 -5 27 -28 37 -51 16 -39 17 -81 15 -532
-2 -452 4 -619 23 -637 12 -11 80 18 125 54 23 19 58 43 77 53 19 10 53 32 75
50 22 17 57 37 77 44 21 7 48 27 63 47 15 19 50 46 78 60 29 13 88 49 132 80
44 30 97 64 119 75 21 11 61 39 90 62 50 42 179 123 256 162 22 12 57 37 77
57 21 21 56 44 78 54 22 9 42 20 45 23 6 9 99 72 174 118 28 17 65 42 81 56
17 13 51 36 77 51 25 15 52 34 59 42 7 9 44 31 83 49 39 19 96 55 126 81 30
26 82 59 115 74 33 15 66 35 74 44 8 9 46 36 85 58 82 48 141 54 185 19 14
-12 39 -29 55 -39 16 -9 53 -38 83 -64 29 -27 60 -48 68 -48 8 0 29 -13 47
-28 47 -40 129 -90 169 -103 19 -7 50 -26 69 -44 19 -17 56 -44 83 -59 26 -15
47 -31 47 -36 0 -4 21 -16 48 -26 26 -9 61 -29 77 -44 17 -15 77 -56 135 -90
58 -35 128 -82 155 -105 28 -23 75 -54 105 -69 65 -32 146 -82 187 -116 16
-14 55 -41 87 -60 31 -19 78 -49 104 -66 26 -18 79 -51 117 -74 81 -50 151
-97 215 -145 25 -19 63 -44 85 -56 22 -12 58 -36 80 -54 22 -17 51 -38 65 -45
14 -7 38 -24 53 -36 16 -13 35 -24 43 -24 17 0 78 -38 148 -93 28 -21 76 -52
108 -68 32 -16 76 -45 97 -64 21 -19 54 -41 72 -49 19 -8 57 -32 86 -53 29
-21 71 -49 94 -63 24 -14 63 -40 87 -58 24 -19 63 -40 86 -48 22 -8 59 -32 81
-53 22 -21 83 -64 135 -95 52 -31 109 -68 127 -80 18 -13 50 -26 72 -30 35 -5
44 -12 61 -46 34 -66 92 -81 130 -33 18 23 21 37 16 78 -3 27 -10 112 -16 187
-7 94 -18 158 -35 207 -13 41 -29 120 -36 188 -6 65 -23 163 -36 218 -44 180
-53 219 -68 295 -7 41 -21 92 -30 114 -9 21 -17 56 -17 78 0 28 -11 55 -38 96
-23 35 -48 93 -65 152 -15 52 -35 109 -44 125 -9 17 -25 53 -35 80 -10 28 -33
82 -51 120 -18 39 -36 86 -39 106 -4 20 -21 56 -40 80 -18 24 -36 57 -40 73
-4 15 -20 45 -35 65 -16 20 -35 50 -43 66 -8 17 -31 64 -51 105 -20 41 -54 98
-75 125 -21 28 -44 66 -52 85 -7 19 -35 62 -62 95 -27 33 -59 83 -73 110 -13
28 -33 59 -45 70 -12 11 -29 33 -37 49 -8 16 -34 50 -58 75 -23 25 -46 54 -51
63 -5 10 -44 53 -87 98 -42 44 -77 86 -77 93 0 14 -15 34 -97 125 -106 119
-390 393 -457 442 -26 19 -72 56 -102 83 -30 26 -58 47 -63 47 -5 0 -27 18
-48 41 -21 22 -54 49 -73 59 -19 10 -69 46 -110 79 -41 33 -81 61 -87 61 -7 0
-38 23 -69 51 -31 28 -71 57 -88 65 -17 8 -69 39 -116 69 -47 30 -103 63 -126
74 -22 11 -48 29 -58 40 -10 11 -47 30 -81 41 -35 12 -69 28 -76 37 -7 8 -38
26 -69 39 -30 14 -66 38 -80 55 -25 29 -41 34 -127 38 -12 1 -37 14 -55 30
-30 26 -198 101 -226 101 -24 0 -165 50 -190 68 -37 25 -78 39 -136 46 -27 3
-68 17 -91 31 -25 14 -91 34 -161 49 -65 14 -152 36 -192 50 -40 14 -110 30
-155 37 -45 6 -106 20 -136 31 -34 12 -93 21 -165 24 -184 9 -373 33 -431 55
-30 11 -87 25 -127 31 -70 10 -685 19 -778 11z"/>
<path d="M7855 19943 c-16 -3 -46 -20 -66 -39 -25 -25 -55 -40 -110 -55 -40
-11 -87 -29 -104 -38 -16 -10 -42 -21 -56 -25 -15 -3 -49 -22 -78 -41 -28 -19
-81 -46 -117 -59 -36 -13 -78 -36 -93 -50 -14 -14 -46 -32 -71 -41 -25 -9 -56
-26 -70 -39 -14 -13 -47 -35 -75 -48 -72 -35 -145 -77 -180 -103 -16 -12 -51
-31 -77 -43 -25 -11 -54 -32 -63 -46 -10 -15 -36 -31 -66 -41 -35 -12 -57 -27
-71 -49 -11 -17 -46 -45 -77 -62 -40 -22 -65 -44 -90 -82 -30 -47 -38 -52 -88
-63 -48 -11 -64 -22 -128 -86 -40 -40 -81 -73 -90 -73 -9 0 -57 -40 -108 -88
-51 -49 -138 -132 -194 -184 -110 -104 -258 -256 -318 -328 -37 -44 -134 -148
-186 -199 -15 -14 -34 -41 -44 -60 -10 -19 -31 -49 -49 -67 -53 -55 -92 -107
-115 -151 -11 -23 -46 -71 -77 -105 -31 -35 -63 -79 -72 -98 -8 -19 -27 -52
-43 -72 -16 -20 -38 -56 -49 -80 -11 -24 -29 -53 -40 -63 -30 -28 -106 -137
-136 -198 -15 -29 -32 -59 -39 -67 -7 -8 -20 -41 -29 -72 -12 -41 -25 -63 -46
-78 -33 -23 -70 -90 -70 -126 0 -12 -10 -33 -21 -48 -12 -15 -29 -53 -39 -84
-10 -31 -34 -81 -54 -111 -20 -29 -36 -59 -36 -66 0 -6 -11 -33 -24 -58 -14
-25 -32 -70 -40 -98 -9 -29 -31 -84 -50 -123 -19 -39 -42 -96 -52 -126 -9 -30
-23 -64 -30 -75 -7 -11 -20 -63 -30 -115 -11 -65 -27 -114 -49 -155 -24 -43
-39 -91 -53 -170 -11 -60 -30 -130 -41 -155 -11 -25 -23 -70 -26 -100 -4 -30
-11 -72 -17 -93 -5 -22 -16 -76 -23 -120 -8 -45 -19 -104 -25 -132 -6 -27 -15
-95 -20 -150 -14 -141 -25 -195 -50 -242 -21 -41 -21 -43 -21 -763 l1 -722 24
-81 c14 -48 29 -136 36 -214 6 -72 18 -153 26 -179 8 -26 21 -93 30 -148 21
-137 38 -206 74 -306 16 -47 30 -103 30 -126 0 -57 26 -141 61 -195 16 -26 34
-73 40 -105 6 -33 20 -79 31 -104 11 -25 27 -69 34 -99 8 -30 30 -89 49 -133
19 -43 35 -93 35 -111 0 -23 11 -46 39 -79 22 -28 43 -67 50 -95 16 -64 192
-416 223 -447 10 -10 25 -43 34 -74 9 -31 29 -70 44 -87 16 -16 35 -46 44 -65
9 -19 36 -66 61 -105 25 -38 53 -83 62 -99 10 -16 36 -49 57 -75 22 -25 46
-62 55 -81 18 -39 72 -122 123 -187 18 -23 53 -68 78 -100 24 -32 62 -79 85
-104 22 -26 53 -68 69 -95 16 -27 43 -61 60 -75 17 -15 60 -61 96 -103 61 -72
278 -294 471 -482 54 -52 95 -84 115 -88 23 -5 35 -17 52 -50 16 -34 34 -51
79 -77 32 -18 79 -51 104 -75 25 -23 59 -49 75 -57 16 -9 42 -30 58 -47 16
-17 45 -39 65 -50 21 -10 43 -26 51 -35 17 -21 94 -72 133 -89 18 -7 58 -37
90 -65 32 -28 62 -51 66 -51 7 0 136 -76 192 -113 33 -22 117 -67 198 -106 35
-17 82 -44 105 -59 49 -33 153 -83 218 -107 26 -9 64 -28 85 -42 38 -26 80
-42 160 -63 23 -6 55 -22 71 -35 16 -14 54 -31 83 -39 56 -15 92 -27 144 -51
171 -78 220 -94 316 -104 57 -6 86 -15 115 -35 47 -32 79 -33 95 -4 7 13 12
88 13 205 1 205 -1 214 -65 228 -18 4 -52 18 -77 31 -25 13 -50 24 -56 24 -33
0 -90 25 -125 55 -23 18 -58 39 -79 46 -40 13 -211 90 -252 114 -14 8 -47 26
-75 39 -27 13 -58 33 -69 45 -10 11 -44 30 -75 42 -31 11 -65 28 -76 38 -31
28 -143 100 -205 131 -30 15 -66 40 -80 55 -25 27 -155 118 -238 167 -25 14
-59 42 -76 62 -30 35 -52 52 -151 120 -27 19 -56 43 -62 55 -7 11 -35 32 -61
45 -27 14 -60 40 -74 58 -15 19 -59 61 -100 94 -40 32 -80 68 -87 79 -8 11
-28 31 -44 45 -43 36 -100 94 -202 205 -49 54 -115 123 -146 154 -30 31 -66
72 -80 91 -13 19 -48 59 -77 88 -29 29 -59 70 -68 90 -8 21 -32 49 -53 63 -21
15 -51 51 -68 80 -17 30 -40 63 -52 73 -11 11 -21 22 -21 27 0 11 -68 110 -95
139 -13 14 -35 50 -48 81 -15 34 -39 66 -61 83 -20 15 -36 32 -36 38 0 12 -49
110 -58 118 -19 14 -71 101 -77 128 -3 17 -23 55 -44 85 -21 30 -44 71 -50 90
-7 20 -24 53 -38 74 -14 21 -33 54 -41 73 -8 19 -33 64 -57 100 -23 36 -46 81
-50 100 -4 19 -18 55 -31 80 -13 25 -24 50 -24 56 0 10 -56 149 -85 209 -8 17
-24 56 -35 87 -12 32 -25 60 -30 63 -5 3 -11 31 -15 63 -10 91 -14 102 -51
136 -32 29 -37 41 -44 102 -12 96 -26 160 -50 222 -11 29 -20 63 -20 76 0 13
-12 54 -26 92 -40 108 -44 124 -54 214 -18 172 -39 291 -52 313 -24 36 -38
111 -38 197 0 44 -6 122 -14 173 -30 193 -28 1201 3 1432 6 44 15 130 20 190
6 78 16 124 32 160 18 39 24 73 27 150 3 91 32 246 53 286 7 15 42 137 84 294
7 28 18 86 24 130 9 60 18 90 40 120 42 60 58 95 65 150 4 28 16 68 26 90 10
22 30 76 45 120 14 44 37 96 50 115 13 19 26 51 30 70 4 19 22 58 40 85 21 31
39 75 47 115 9 45 26 84 55 128 24 35 43 68 43 74 0 5 8 22 18 36 10 15 26 48
36 74 10 26 31 60 47 75 16 16 34 44 40 63 6 19 23 51 37 70 14 18 44 70 67
115 22 44 64 111 93 149 29 38 52 75 52 82 0 7 24 40 53 73 30 33 68 89 86
125 18 36 39 70 48 75 9 4 30 27 47 49 17 22 51 67 75 99 25 32 91 110 147
174 56 64 110 131 119 150 10 19 27 40 39 48 12 8 80 73 151 145 184 184 378
367 407 382 13 7 53 40 88 74 35 34 81 70 102 81 20 10 70 51 110 89 46 44 87
74 112 82 21 6 45 22 53 35 9 13 29 31 45 39 16 8 46 30 66 48 20 19 54 41 74
49 32 14 144 89 158 107 3 4 25 17 50 31 25 13 59 34 76 46 17 13 50 30 75 38
24 9 57 29 74 45 18 17 57 37 98 50 53 17 70 26 77 46 6 14 10 27 10 30 0 5
-71 3 -115 -3z"/>
<path d="M17825 15049 c-44 -11 -95 -27 -113 -35 -18 -8 -59 -14 -92 -14 -32
0 -62 -4 -65 -10 -3 -5 -38 -30 -76 -55 -74 -48 -169 -131 -169 -148 0 -5 -17
-29 -38 -51 -26 -29 -41 -55 -45 -83 -4 -23 -18 -51 -33 -66 -22 -22 -30 -46
-46 -139 -37 -207 -23 -706 21 -768 29 -41 58 -102 65 -140 4 -19 24 -60 46
-90 22 -30 52 -73 67 -95 32 -49 107 -136 152 -178 19 -18 44 -43 55 -57 27
-33 159 -163 332 -328 139 -133 190 -190 219 -247 8 -17 32 -52 54 -77 22 -28
43 -66 50 -95 6 -26 21 -77 33 -113 14 -41 24 -99 26 -158 4 -89 3 -97 -33
-188 -40 -101 -69 -135 -148 -176 -35 -18 -58 -21 -139 -20 -159 2 -204 34
-298 218 -30 59 -32 69 -39 228 -6 114 -12 171 -22 182 -12 14 -37 16 -219 11
-113 -3 -213 -8 -222 -12 -31 -12 -58 -69 -58 -120 0 -99 42 -462 59 -515 10
-30 32 -77 50 -104 17 -28 31 -55 31 -62 0 -7 14 -22 30 -34 17 -12 40 -40 51
-63 24 -47 56 -78 114 -109 22 -11 53 -32 70 -46 46 -38 111 -62 170 -62 34 0
57 -5 65 -15 7 -8 44 -24 83 -36 61 -18 78 -19 131 -10 34 6 86 9 116 8 45 -2
69 4 130 33 54 24 93 35 140 38 54 4 71 9 98 33 18 16 37 29 43 29 10 0 137
98 171 132 10 10 23 38 29 63 7 28 24 57 46 78 26 26 38 50 53 108 10 41 27
97 38 124 49 127 56 454 12 580 -31 89 -70 218 -70 234 0 7 -18 40 -40 73 -22
33 -40 65 -40 70 0 21 -92 157 -110 163 -10 3 -30 25 -44 49 -14 24 -32 46
-40 49 -8 3 -38 36 -67 72 -29 37 -68 74 -90 86 -24 12 -46 34 -58 57 -21 41
-93 112 -114 112 -14 0 -103 93 -167 175 -25 32 -61 68 -81 81 -20 12 -42 37
-49 56 -8 18 -29 53 -47 77 -18 24 -33 48 -33 53 0 5 -13 35 -29 67 -51 104
-65 272 -36 441 l15 85 61 56 c55 50 69 58 140 74 73 16 81 16 119 1 22 -9 54
-16 71 -16 23 0 39 -9 62 -37 18 -21 47 -52 65 -69 45 -43 54 -79 57 -226 1
-71 3 -132 4 -137 6 -41 494 -52 535 -11 7 7 10 51 8 123 -2 116 -14 193 -37
262 -8 22 -24 77 -36 123 -16 62 -30 92 -54 118 -18 19 -38 54 -44 79 -8 33
-22 53 -57 82 -26 21 -64 55 -86 76 -22 20 -47 37 -57 37 -10 0 -38 14 -63 30
-25 17 -70 35 -101 41 -31 5 -89 21 -129 35 -103 36 -243 41 -353 13z"/>
<path d="M26805 15050 c-43 -12 -85 -17 -108 -14 -21 3 -43 1 -50 -4 -7 -5
-31 -13 -55 -17 -26 -4 -57 -19 -77 -36 -18 -16 -43 -29 -55 -29 -39 0 -167
-107 -197 -165 -9 -16 -28 -46 -44 -65 -15 -19 -30 -49 -34 -67 -3 -17 -20
-53 -38 -79 -35 -53 -45 -105 -46 -234 -1 -47 -7 -108 -14 -136 -9 -36 -11
-77 -5 -145 4 -52 12 -157 17 -234 10 -138 11 -140 40 -165 21 -17 34 -40 42
-75 6 -27 16 -59 22 -71 20 -35 51 -85 74 -118 12 -17 38 -54 58 -83 66 -97
503 -523 536 -523 5 0 22 -20 38 -46 28 -43 58 -78 128 -148 18 -17 42 -52 53
-76 12 -25 32 -60 45 -78 13 -18 29 -58 35 -89 7 -31 22 -75 34 -97 18 -36 21
-57 20 -166 0 -123 -1 -126 -37 -201 -65 -134 -100 -156 -269 -165 -102 -6
-117 -5 -153 14 -60 30 -96 71 -140 158 l-40 77 0 151 c0 131 -3 156 -20 191
l-20 40 -215 0 -215 1 -27 -27 c-15 -14 -30 -43 -34 -65 -8 -44 13 -304 28
-349 6 -16 14 -74 18 -127 6 -83 12 -103 39 -147 17 -28 31 -55 31 -60 0 -16
78 -127 121 -173 25 -26 61 -54 81 -63 21 -8 52 -28 70 -44 51 -44 78 -55 148
-62 39 -4 96 -19 140 -38 69 -30 85 -33 190 -34 101 -2 121 1 165 21 86 40
204 74 235 67 22 -5 35 0 62 22 35 30 53 42 108 72 46 26 95 80 155 171 49 74
95 170 95 197 0 8 9 34 21 59 31 70 54 312 40 434 -22 196 -82 433 -120 474
-10 12 -31 45 -45 74 -43 86 -93 159 -125 181 -16 12 -43 45 -59 74 -35 61
-300 322 -348 342 -17 7 -42 30 -54 51 -25 40 -94 117 -192 214 -32 31 -58 63
-58 71 0 8 -16 32 -35 54 -19 22 -42 62 -51 89 -9 26 -23 60 -30 75 -8 14 -14
37 -14 51 0 14 -7 46 -15 72 -17 57 -12 188 11 289 13 54 24 75 68 125 52 58
56 60 135 78 44 10 91 16 103 13 134 -34 166 -51 209 -113 43 -63 66 -145 74
-268 6 -86 11 -112 26 -127 22 -22 12 -21 279 -20 185 0 206 2 218 18 22 28 9
330 -18 425 -39 139 -53 173 -85 208 -18 19 -45 60 -59 92 -16 34 -41 67 -64
84 -20 16 -49 41 -64 56 -14 16 -43 35 -64 44 -21 9 -49 25 -63 35 -13 10 -37
19 -53 19 -16 0 -45 7 -66 16 -125 54 -327 74 -437 44z"/>
<path d="M22909 15003 c-35 -37 -37 -41 -42 -128 -3 -49 -17 -134 -31 -189
-15 -58 -26 -125 -26 -165 0 -73 -26 -223 -61 -346 -19 -67 -22 -102 -21 -215
2 -90 -2 -152 -12 -185 -8 -27 -19 -70 -25 -95 -7 -25 -16 -61 -21 -80 -6 -19
-12 -84 -15 -145 -3 -60 -12 -137 -20 -170 -7 -33 -16 -87 -19 -120 -4 -33
-15 -85 -26 -115 -12 -36 -19 -82 -20 -131 0 -42 -7 -98 -15 -125 -8 -27 -15
-65 -15 -84 -1 -41 -36 -180 -49 -193 -18 -18 -59 2 -71 35 -18 50 -41 228
-48 378 -5 97 -12 144 -24 166 -34 62 -60 194 -55 273 5 70 -8 167 -33 251
-11 36 -36 175 -65 360 -9 58 -22 128 -30 155 -20 69 -45 275 -45 362 0 55 -6
83 -25 125 -14 29 -25 64 -25 78 0 14 -7 47 -15 74 -8 27 -15 82 -15 121 0 50
-4 76 -14 84 -64 53 -744 57 -797 4 -5 -5 -9 -775 -10 -1853 l0 -1845 38 -20
c27 -14 55 -19 98 -18 33 1 119 2 191 2 72 0 143 5 158 11 l27 10 -5 652 c-2
359 -5 662 -6 673 0 11 -1 97 0 190 1 94 -2 260 -6 370 -4 134 -2 233 6 300
25 205 36 243 62 217 12 -12 32 -139 47 -307 12 -123 24 -186 51 -261 16 -44
25 -107 34 -250 10 -134 19 -200 30 -222 9 -17 20 -60 25 -96 5 -36 13 -71 18
-78 4 -7 11 -65 14 -128 3 -63 13 -144 22 -180 25 -99 36 -163 53 -304 8 -71
21 -141 28 -155 8 -14 17 -51 21 -81 4 -30 13 -80 21 -111 8 -31 14 -95 14
-141 0 -122 -11 -116 245 -117 210 0 294 9 315 34 18 21 60 254 60 333 0 40 6
101 14 135 39 172 49 218 58 292 5 44 11 133 14 199 3 97 9 134 33 205 19 55
34 126 41 196 6 61 15 146 20 190 5 44 12 106 14 138 3 34 14 76 27 100 18 34
22 57 21 117 -1 113 39 383 60 396 19 12 28 -13 47 -139 18 -117 18 -153 10
-469 -6 -189 -8 -622 -5 -963 3 -341 5 -643 5 -671 1 -87 5 -89 259 -90 191
-1 222 1 261 17 41 18 43 21 37 51 -5 26 -8 3520 -3 3638 2 33 0 36 -48 53
-39 13 -67 16 -125 11 -87 -7 -85 -7 -340 4 -107 5 -204 12 -215 16 -15 5 -29
-2 -56 -31z"/>
<path d="M10137 15010 c-54 -16 -55 -19 -57 -198 -7 -513 -10 -3269 -5 -3390
l7 -144 32 -19 c26 -17 41 -19 91 -13 73 8 118 8 258 -1 92 -7 114 -5 147 10
21 10 40 23 42 29 2 6 2 840 0 1854 l-2 1842 -33 20 c-29 18 -50 20 -242 19
-115 0 -223 -5 -238 -9z"/>
<path d="M11146 15010 c-15 -5 -36 -16 -46 -25 -18 -16 -18 -88 -13 -1863 4
-1593 7 -1849 19 -1862 12 -12 56 -16 244 -18 l229 -3 16 25 c15 23 16 130 14
1223 l-2 1198 21 48 c11 26 27 47 34 47 29 0 58 -83 74 -210 3 -30 17 -84 30
-120 12 -36 34 -110 47 -165 14 -55 29 -113 35 -130 24 -71 33 -108 46 -187 9
-53 25 -104 45 -142 17 -32 31 -71 31 -86 0 -50 31 -193 50 -230 10 -20 26
-75 36 -121 9 -46 22 -95 30 -109 7 -14 17 -50 23 -80 24 -141 43 -216 62
-247 26 -42 48 -132 49 -201 0 -40 9 -72 39 -135 22 -47 42 -105 45 -137 9
-76 39 -184 56 -204 33 -40 56 -44 265 -35 110 4 223 5 250 2 48 -5 52 -4 63
21 9 21 12 448 12 1871 0 1746 -1 1845 -17 1853 -28 14 -155 25 -300 26 -163
1 -164 0 -175 -112 -11 -126 -9 -1768 2 -1840 9 -51 8 -76 -5 -125 -27 -107
-58 -112 -91 -14 -12 35 -17 78 -16 129 2 69 0 79 -24 107 -27 33 -64 159 -64
223 0 20 -11 60 -25 90 -14 29 -25 65 -25 79 0 15 -7 46 -15 69 -8 23 -15 54
-15 67 0 14 -16 61 -36 106 -26 59 -38 106 -45 170 -7 57 -21 112 -40 159 -19
45 -33 99 -38 147 -5 42 -16 91 -25 109 -10 18 -33 95 -52 170 -19 75 -48 164
-64 198 -24 49 -30 74 -30 130 0 102 -11 117 -90 127 -36 5 -83 8 -105 7 -22
-1 -56 -2 -75 -1 -289 8 -410 9 -434 1z"/>
<path d="M13265 15011 c-72 -18 -70 -14 -69 -173 2 -189 13 -320 29 -342 12
-16 35 -18 262 -17 136 0 263 -3 281 -6 68 -11 63 112 62 -1622 l0 -1570 27
-18 c22 -14 47 -18 128 -18 55 1 114 2 130 4 17 1 77 -2 134 -8 87 -9 108 -8
132 5 16 8 29 20 29 27 0 6 -1 647 -2 1422 -1 1367 -1 1460 1 1535 1 19 -1 74
-5 121 -6 85 -6 86 21 108 27 20 37 21 277 21 218 0 254 2 279 17 46 27 58 65
52 168 -2 50 0 135 5 190 11 112 10 116 -49 146 -37 18 -67 19 -866 18 -455
-1 -841 -4 -858 -8z"/>
<path d="M15339 15001 c-21 -17 -22 -22 -12 -57 8 -28 10 -532 7 -1834 -3
-987 -2 -1805 2 -1817 10 -37 68 -57 138 -48 68 9 92 9 249 -1 92 -5 115 -4
148 11 l39 18 2 1841 c2 1013 -1 1849 -5 1859 -18 40 -64 47 -311 47 -213 0
-236 -2 -257 -19z"/>
<path d="M19310 15004 c-41 -7 -76 -13 -77 -13 -2 -1 -3 -838 -3 -1861 l0
-1860 23 -4 c12 -3 46 -10 75 -16 80 -15 1464 -14 1480 2 16 16 17 426 0 463
l-11 25 -231 1 c-127 0 -332 0 -456 0 -206 0 -227 2 -256 20 -18 11 -34 26
-37 33 -3 8 -7 249 -8 536 l-2 522 22 21 c17 18 30 21 69 18 26 -2 83 -3 127
-2 140 4 208 3 309 -4 96 -7 227 6 269 27 15 8 17 28 17 209 0 220 -4 239 -60
279 -25 18 -39 21 -78 16 -26 -4 -171 -7 -322 -8 -352 -2 -356 0 -353 142 4
212 3 778 -2 801 -9 42 12 97 43 113 22 11 120 14 477 15 248 0 453 1 456 1 4
0 14 15 23 34 12 25 16 68 18 172 2 245 2 258 -15 297 l-16 37 -703 -1 c-530
-1 -721 -5 -778 -15z"/>
<path d="M24285 15011 c-16 -5 -56 -9 -87 -10 -39 -1 -58 -5 -59 -13 -4 -96 3
-3703 7 -3710 21 -34 62 -36 786 -37 759 -2 794 0 802 42 6 30 19 165 19 202
0 67 -22 238 -32 248 -8 8 -147 10 -459 9 -422 -3 -449 -2 -482 16 -23 13 -39
31 -47 54 -8 24 -12 182 -14 516 -2 463 -2 482 17 503 43 47 56 49 358 49 158
0 309 5 338 10 111 22 98 -10 98 238 0 199 -2 220 -20 250 -11 17 -25 32 -32
33 -7 0 -159 0 -338 0 -295 -2 -328 0 -359 16 -58 30 -59 41 -60 523 0 390 2
439 17 470 9 19 28 40 42 47 19 10 132 13 471 13 411 0 448 1 468 18 27 22 43
104 31 158 -5 21 -10 103 -10 181 l0 143 -27 17 c-25 17 -66 18 -553 18 -289
-1 -550 -2 -580 -4 -30 -2 -102 -1 -160 2 -58 3 -118 2 -135 -2z"/>
<path d="M28043 15013 c-45 -9 -48 -23 -46 -237 1 -110 6 -214 11 -231 15 -55
40 -60 318 -63 307 -4 291 4 306 -149 5 -54 7 -122 3 -152 -3 -30 -6 -696 -6
-1480 l1 -1425 27 -15 c16 -8 53 -14 83 -14 30 0 75 0 100 0 307 -2 319 -2
335 14 14 14 16 168 15 1555 0 1350 2 1545 15 1590 8 29 22 57 30 64 10 9 85
11 280 10 l265 -1 25 25 c28 28 29 42 30 335 0 123 -2 135 -20 146 -35 22
-197 39 -287 30 -46 -4 -99 -7 -118 -6 -82 5 -1347 8 -1367 4z"/>
<path d="M30515 15008 c-22 -5 -57 -7 -77 -4 -48 8 -54 -3 -63 -124 -4 -52
-13 -110 -21 -129 -8 -18 -14 -47 -14 -63 0 -16 -8 -40 -17 -54 -12 -19 -20
-70 -30 -188 -7 -88 -22 -208 -33 -266 -11 -58 -36 -201 -55 -318 -19 -118
-41 -235 -49 -260 -21 -66 -30 -141 -30 -257 -1 -102 -17 -175 -57 -262 -17
-35 -20 -70 -24 -210 -3 -133 -8 -182 -24 -233 -12 -36 -21 -73 -21 -82 0 -10
-6 -32 -14 -50 -8 -18 -19 -78 -25 -133 -16 -141 -36 -259 -60 -352 -15 -60
-19 -97 -15 -144 5 -44 1 -84 -10 -129 -9 -36 -23 -97 -32 -136 -8 -39 -21
-84 -28 -100 -12 -24 -22 -152 -17 -224 2 -35 42 -44 204 -46 174 -3 293 13
313 41 7 9 15 51 19 93 3 43 13 107 21 144 8 37 14 87 14 111 0 25 7 64 15 87
8 23 15 64 15 90 0 32 6 56 18 71 l19 22 320 2 c198 1 335 -3 358 -9 59 -17
78 -60 71 -162 -5 -68 -2 -92 17 -150 16 -46 26 -105 30 -175 4 -59 9 -113 13
-122 10 -26 55 -37 154 -38 52 0 161 -1 242 -2 157 -2 180 4 178 49 0 10 -2
74 -5 140 -2 83 -9 134 -20 160 -31 71 -57 198 -57 274 0 70 -7 127 -28 225
-17 78 -49 261 -60 347 -6 48 -20 115 -30 149 -11 34 -20 80 -20 103 -1 22 -7
68 -15 101 -8 33 -15 87 -15 120 0 33 -5 92 -10 130 -10 66 -15 89 -55 227
-11 40 -14 76 -10 120 5 46 1 90 -15 163 -12 55 -26 120 -30 145 -34 183 -42
235 -47 310 -3 47 -12 97 -19 111 -18 36 -52 244 -59 369 -4 58 -13 125 -21
150 -46 149 -55 190 -55 261 -1 83 3 78 -72 108 -34 13 -600 12 -662 -1z m306
-830 c28 -52 47 -183 42 -294 -6 -120 -2 -144 51 -349 30 -119 36 -155 34
-235 -1 -72 4 -114 21 -175 22 -79 42 -212 61 -412 6 -57 17 -122 25 -145 20
-59 19 -111 -4 -139 -18 -23 -21 -23 -252 -24 l-234 -2 -26 27 c-56 56 -50
218 16 445 13 44 26 116 29 161 3 44 10 93 16 108 5 15 10 54 10 87 0 33 13
126 29 207 17 83 30 180 30 223 0 42 5 96 10 120 6 24 11 59 11 77 0 18 8 49
19 70 10 20 26 75 35 122 16 84 41 150 57 150 5 0 14 -10 20 -22z"/>
<path d="M18140 10050 c-106 -13 -248 -38 -267 -48 -10 -5 -43 -12 -73 -15
-30 -4 -59 -13 -65 -20 -16 -22 -51 -37 -85 -37 -38 0 -67 -14 -101 -49 -14
-14 -57 -54 -97 -89 -78 -69 -142 -169 -163 -257 -6 -28 -20 -75 -30 -106 -23
-68 -24 -147 -3 -197 8 -20 26 -79 40 -131 18 -70 30 -98 49 -113 14 -11 34
-37 45 -58 11 -21 34 -49 52 -62 18 -12 49 -39 69 -59 26 -26 48 -38 80 -43
24 -4 53 -16 64 -26 12 -11 43 -24 71 -29 27 -6 86 -28 131 -51 77 -38 88 -40
165 -39 211 2 247 0 280 -21 18 -11 42 -20 53 -20 11 0 29 -6 40 -14 11 -7 43
-16 72 -20 76 -10 123 -34 212 -111 91 -77 111 -114 111 -206 0 -70 -17 -114
-69 -184 -32 -42 -57 -60 -140 -103 -129 -66 -204 -82 -381 -80 -140 1 -267
23 -299 52 -9 8 -36 22 -61 31 -25 9 -59 22 -75 28 -46 18 -133 83 -153 115
-36 58 -105 142 -116 142 -7 0 -27 -11 -46 -25 -19 -14 -39 -25 -44 -25 -6 0
-38 -14 -71 -30 -33 -16 -67 -30 -75 -30 -17 0 -110 -91 -110 -108 0 -5 16
-22 35 -36 23 -18 38 -40 46 -69 6 -23 28 -60 48 -83 20 -22 57 -65 83 -96 30
-35 68 -67 107 -87 33 -17 77 -42 97 -56 20 -14 54 -30 75 -35 21 -6 41 -15
44 -21 4 -5 26 -7 55 -3 44 6 49 4 65 -20 23 -35 78 -49 144 -36 36 7 68 6
103 -1 32 -7 93 -9 162 -5 314 19 332 21 357 38 35 22 154 58 196 58 22 0 42
8 57 23 13 13 48 39 77 57 70 42 143 111 195 181 55 74 60 85 68 149 4 30 16
70 26 90 19 35 25 64 36 170 5 44 1 71 -21 135 -14 43 -33 107 -40 141 -8 33
-27 83 -41 110 -29 53 -101 134 -119 134 -6 0 -35 20 -63 44 -29 25 -78 54
-109 65 -32 11 -75 30 -95 41 -20 11 -47 20 -60 20 -13 0 -43 6 -68 14 -82 27
-145 47 -180 58 -19 6 -116 14 -216 17 -179 6 -180 6 -213 34 -50 42 -106 67
-148 67 -48 0 -52 3 -106 76 -54 73 -61 107 -43 202 13 71 15 74 81 135 71 65
109 85 162 86 18 1 67 15 110 32 71 29 85 31 157 25 52 -4 96 -14 133 -31 33
-15 74 -25 100 -25 41 0 111 -22 123 -38 3 -4 58 -43 122 -86 86 -57 123 -76
138 -71 11 3 20 10 20 15 0 10 56 30 85 30 12 0 30 10 41 21 10 12 44 33 74
48 50 24 55 29 58 63 2 20 -4 49 -13 65 -35 63 -114 149 -158 173 -25 14 -57
35 -69 47 -13 12 -54 33 -91 47 -38 14 -81 35 -97 46 -15 11 -44 20 -63 20
-19 0 -57 6 -83 14 -53 16 -212 43 -284 50 -25 2 -74 0 -110 -4z"/>
<path d="M29915 10035 c-71 -13 -146 -29 -165 -34 -19 -6 -48 -11 -63 -11 -17
0 -42 -11 -59 -25 -23 -20 -38 -25 -59 -20 -34 8 -99 -24 -122 -59 -9 -13 -39
-37 -66 -52 -64 -34 -191 -194 -191 -239 0 -11 -12 -37 -26 -58 -25 -38 -26
-41 -24 -210 1 -162 2 -174 24 -207 13 -19 34 -62 47 -95 34 -87 142 -201 224
-236 34 -15 85 -43 114 -63 42 -28 63 -36 98 -36 28 0 61 -9 91 -25 32 -17 63
-25 97 -25 27 0 73 -6 102 -14 37 -10 64 -11 93 -5 60 14 185 -14 232 -52 33
-26 44 -29 101 -28 62 1 117 -18 117 -42 0 -5 25 -23 55 -40 59 -33 66 -42
102 -129 29 -69 29 -109 1 -193 -29 -85 -87 -158 -147 -186 -25 -12 -59 -29
-76 -37 -64 -34 -139 -46 -305 -49 -185 -3 -257 10 -364 65 -32 16 -69 30 -82
30 -13 0 -35 11 -50 25 -15 14 -31 25 -36 25 -20 0 -134 124 -148 163 l-16 42
-54 -3 c-46 -3 -64 -11 -106 -43 -30 -23 -62 -39 -78 -39 -66 0 -116 -57 -116
-133 0 -50 126 -231 215 -309 49 -42 107 -78 127 -78 9 0 31 -13 49 -30 29
-25 42 -30 89 -30 54 0 86 -12 145 -54 30 -22 102 -27 385 -29 259 -2 340 5
392 36 25 14 84 36 132 48 60 15 100 32 130 55 24 18 73 49 109 69 48 26 68
44 76 65 5 16 30 50 55 74 25 24 46 52 46 61 0 9 14 37 31 62 29 41 33 58 46
182 13 116 13 152 2 241 -12 92 -20 118 -66 211 -39 80 -63 116 -95 143 -24
19 -63 53 -88 73 -25 21 -70 49 -100 62 -30 13 -82 36 -114 52 -34 17 -75 29
-98 29 -21 0 -64 9 -96 19 -167 55 -214 64 -352 65 l-135 1 -50 35 c-41 28
-61 35 -113 38 -59 4 -66 7 -118 55 -65 59 -79 84 -89 153 -5 39 -1 68 14 120
12 38 24 74 28 79 23 31 119 95 142 95 40 0 117 26 151 52 28 21 41 22 156 22
126 -1 126 -1 201 -40 60 -30 85 -38 122 -36 41 2 51 -2 77 -29 16 -17 48 -39
70 -49 23 -10 55 -34 70 -54 28 -35 31 -36 100 -36 69 0 73 1 117 40 25 22 55
40 67 40 29 0 77 26 90 49 5 11 10 38 10 60 0 33 -8 50 -51 102 -29 34 -72 73
-97 88 -26 14 -62 42 -82 62 -37 39 -108 79 -137 79 -10 0 -36 12 -57 26 -51
35 -88 45 -171 49 -38 2 -96 11 -128 19 -101 28 -208 28 -352 1z"/>
<path d="M13015 10019 c-49 -4 -108 -12 -130 -18 -22 -6 -59 -11 -83 -11 -24
0 -56 -7 -71 -15 -16 -8 -71 -28 -122 -45 -60 -20 -105 -42 -124 -60 -16 -16
-50 -37 -75 -48 -56 -24 -169 -123 -193 -170 -10 -19 -35 -52 -55 -73 -90 -95
-115 -128 -146 -194 -18 -39 -36 -96 -40 -127 -5 -38 -17 -72 -38 -102 -38
-59 -47 -98 -49 -216 0 -52 -4 -122 -8 -155 -5 -34 -3 -126 4 -215 11 -138 15
-162 42 -215 16 -33 37 -89 46 -125 21 -85 50 -149 91 -203 19 -25 39 -55 46
-67 15 -28 209 -222 265 -266 22 -16 69 -44 105 -61 36 -16 83 -42 104 -56 32
-22 50 -27 102 -27 49 0 84 -8 151 -34 72 -28 108 -36 193 -41 196 -13 301 -1
368 43 16 10 49 18 82 19 98 2 162 21 190 54 11 14 50 29 74 29 15 0 44 16 71
40 25 22 50 40 55 40 5 0 24 16 42 35 17 20 46 44 62 55 17 10 56 49 86 86 30
36 60 72 66 78 6 7 19 28 29 46 9 19 27 49 40 65 12 17 30 57 40 90 9 33 28
78 41 101 40 68 93 345 94 490 0 138 -53 449 -84 484 -8 8 -21 40 -30 70 -29
101 -101 218 -204 329 -42 46 -86 91 -96 100 -11 9 -38 32 -60 52 -23 20 -65
48 -93 63 -29 14 -53 30 -53 35 0 22 -66 56 -111 58 -28 1 -67 12 -95 27 -34
18 -64 26 -100 26 -28 0 -69 6 -90 14 -51 17 -226 26 -339 15z m348 -425 c26
-7 73 -29 105 -49 32 -19 64 -35 73 -35 20 0 135 -84 148 -109 6 -10 26 -28
45 -39 27 -16 38 -32 50 -71 8 -28 26 -66 40 -83 13 -18 30 -55 37 -83 6 -27
18 -57 25 -65 26 -31 36 -117 36 -315 0 -156 -3 -209 -15 -240 -9 -22 -26 -69
-39 -105 -14 -36 -31 -77 -39 -91 -8 -15 -26 -48 -40 -75 -37 -67 -138 -172
-188 -195 -23 -10 -52 -30 -66 -45 -16 -17 -41 -30 -68 -35 -23 -4 -71 -15
-107 -24 -178 -44 -211 -48 -315 -37 -55 6 -122 20 -150 31 -78 30 -128 45
-153 45 -13 1 -38 13 -55 29 -18 15 -70 60 -116 100 -64 55 -91 87 -117 137
-18 36 -47 79 -64 95 -36 36 -50 80 -50 162 0 34 -7 92 -16 130 -19 80 -14
228 11 307 8 27 15 74 15 105 0 46 7 67 35 116 20 33 46 83 59 111 33 69 219
246 285 270 25 10 54 24 64 33 23 19 117 33 244 35 56 0 105 5 109 9 11 10
159 -2 217 -19z"/>
<path d="M9905 9921 c-17 -22 -18 -84 -17 -1180 1 -636 1 -1159 2 -1162 0 -3
10 -10 23 -16 27 -12 364 -5 390 9 17 9 18 38 16 498 0 269 2 494 6 499 3 6
13 11 21 11 16 0 253 -236 474 -471 74 -79 159 -166 188 -195 28 -28 52 -54
52 -58 0 -11 129 -136 140 -136 5 0 19 -17 31 -37 60 -99 145 -176 172 -156
31 24 110 33 284 30 155 -2 185 0 198 14 21 20 11 44 -30 69 -32 20 -236 227
-353 358 -34 39 -75 77 -90 84 -14 7 -36 29 -47 48 -17 29 -60 74 -226 236
-17 16 -50 53 -76 82 -25 28 -52 52 -59 52 -7 0 -25 16 -39 35 -36 46 -136
148 -159 160 -23 13 -36 86 -24 133 7 24 19 37 51 52 31 15 54 38 85 86 24 35
61 76 81 89 21 13 58 47 82 75 81 96 215 243 397 435 62 65 122 135 133 155
11 20 35 44 53 54 17 9 48 32 69 51 29 27 37 41 37 69 0 19 -5 38 -10 41 -20
12 -463 9 -486 -3 -12 -6 -45 -39 -75 -74 -30 -34 -72 -81 -94 -104 -154 -161
-283 -301 -297 -325 -9 -15 -26 -32 -36 -38 -11 -6 -43 -39 -72 -73 -72 -88
-311 -338 -333 -350 -14 -7 -23 -6 -34 4 -12 13 -14 86 -13 466 l1 450 -25 29
-24 28 -175 0 c-171 0 -174 0 -192 -24z"/>
<path d="M14879 9939 c-47 -7 -89 -24 -100 -41 -3 -5 -5 -526 -5 -1159 1
-1118 2 -1151 20 -1164 10 -8 41 -22 68 -31 46 -15 54 -15 107 0 32 9 95 16
143 16 62 0 89 4 97 14 7 8 15 56 18 108 4 83 5 142 1 313 0 28 0 230 2 450 1
234 -2 428 -8 467 -29 188 52 293 117 155 25 -51 79 -128 129 -183 59 -65 102
-117 125 -151 53 -78 155 -209 188 -242 20 -20 45 -52 54 -71 10 -19 30 -49
44 -66 14 -17 42 -50 61 -74 19 -25 52 -62 72 -83 21 -21 47 -54 57 -75 10
-20 33 -47 50 -60 17 -12 40 -41 52 -64 22 -43 71 -105 165 -207 29 -31 59
-74 68 -96 22 -53 81 -113 134 -137 36 -16 50 -18 99 -8 31 5 76 10 99 10 49
0 80 23 67 49 -4 9 -9 531 -10 1160 -2 1021 -3 1146 -17 1160 -13 13 -42 15
-183 12 -162 -2 -169 -3 -194 -27 l-25 -24 3 -694 c3 -604 1 -695 -12 -706 -8
-7 -21 -10 -29 -7 -18 7 -178 194 -196 231 -8 16 -29 35 -46 44 -18 8 -39 30
-48 50 -17 34 -70 109 -142 202 -20 25 -48 60 -62 79 -15 19 -41 50 -57 70
-17 20 -47 57 -68 83 -21 26 -65 78 -100 116 -34 38 -73 88 -87 111 -13 23
-40 58 -60 79 -20 20 -51 60 -69 89 -18 28 -36 53 -40 55 -12 4 -95 109 -125
157 -15 22 -30 41 -35 41 -5 0 -24 12 -41 26 -29 25 -39 27 -133 28 -56 1
-123 -1 -148 -5z"/>
<path d="M19898 9942 l-366 -2 -32 -30 c-27 -25 -31 -34 -25 -58 5 -15 9 -71
11 -125 3 -136 10 -166 40 -177 14 -6 171 -10 358 -10 315 0 334 -1 350 -19
16 -18 17 -83 17 -948 0 -510 2 -942 5 -959 3 -17 16 -44 28 -59 l23 -29 81
19 c61 13 95 16 139 10 32 -5 79 -9 105 -9 87 -2 80 -76 82 861 0 455 -1 888
-4 961 -6 190 -39 174 355 172 175 0 322 -3 327 -6 21 -13 56 7 67 37 16 46
15 330 -1 352 -12 16 -60 17 -603 20 -324 1 -755 1 -957 -1z"/>
<path d="M21808 9927 c-16 -9 -32 -27 -37 -40 -5 -12 -8 -535 -7 -1162 l1
-1140 44 -24 c42 -23 45 -23 132 -11 54 8 120 10 168 6 65 -5 81 -4 91 10 11
12 14 92 14 369 1 353 1 355 23 377 22 21 28 22 205 19 101 -1 200 -7 220 -12
30 -8 48 -24 94 -85 31 -41 69 -81 84 -89 15 -8 37 -30 49 -50 11 -19 32 -41
47 -47 14 -7 35 -30 46 -52 12 -23 64 -86 117 -142 93 -98 163 -176 209 -238
29 -39 35 -42 123 -60 59 -13 92 -14 159 -6 47 5 129 10 183 10 115 0 124 8
81 73 -40 60 -74 96 -116 123 -21 13 -46 41 -57 62 -10 21 -42 59 -70 85 -28
26 -55 56 -61 67 -6 11 -29 31 -50 45 -22 14 -47 39 -56 57 -23 44 -140 172
-186 205 -28 19 -38 33 -38 53 0 23 11 34 63 67 34 22 92 53 129 68 73 30 101
50 195 142 49 47 68 75 83 117 10 31 30 71 43 88 56 76 78 341 43 503 -19 87
-91 242 -158 339 -24 34 -62 71 -92 91 -28 18 -60 43 -71 55 -27 30 -84 58
-117 58 -17 0 -42 12 -64 32 -27 23 -44 31 -62 27 -14 -3 -61 1 -106 9 -62 11
-223 15 -675 17 -551 2 -596 1 -623 -16z m962 -403 c125 -2 226 -9 242 -15 16
-6 43 -8 63 -5 81 16 215 -118 262 -262 l27 -83 -18 -87 c-31 -150 -111 -265
-198 -284 -154 -33 -194 -36 -458 -37 -151 0 -295 0 -320 0 -25 0 -61 -2 -81
-6 -31 -6 -39 -3 -58 20 -21 27 -21 35 -21 362 0 275 3 339 15 363 19 36 25
38 120 32 44 -2 96 1 115 6 19 6 49 9 65 6 17 -3 127 -7 245 -10z"/>
<path d="M24384 9942 c-75 -3 -83 -5 -109 -32 l-29 -30 2 -293 c4 -653 13
-1105 22 -1157 6 -30 15 -102 20 -160 10 -99 31 -167 65 -210 6 -8 18 -31 25
-50 35 -90 197 -287 265 -322 79 -40 152 -83 167 -98 10 -11 41 -20 83 -25 63
-6 206 -49 255 -75 15 -8 76 -14 158 -16 115 -3 143 0 191 17 135 48 209 69
248 69 30 0 50 7 71 25 17 14 37 25 47 25 25 0 56 19 100 60 22 21 59 46 83
55 35 15 48 28 79 82 20 36 51 80 70 99 18 18 33 43 33 54 0 29 23 71 54 97
22 19 26 31 26 73 0 27 6 67 14 87 8 21 25 99 38 173 23 133 23 147 23 827 0
506 -4 696 -12 704 -20 20 -84 25 -251 19 -201 -8 -201 -8 -183 -107 9 -49 11
-127 6 -283 -8 -265 -11 -789 -5 -970 3 -92 0 -153 -9 -190 -21 -85 -126 -294
-170 -337 -56 -57 -111 -93 -139 -93 -14 0 -56 -16 -93 -35 -68 -34 -71 -35
-192 -35 -78 1 -134 6 -157 15 -19 7 -77 28 -129 47 -79 28 -103 42 -151 88
-83 80 -125 138 -145 200 -9 30 -26 75 -36 100 -45 109 -52 148 -43 228 19
167 2 1347 -19 1369 -9 8 -126 10 -273 5z"/>
<path d="M27085 9943 l-150 -4 -33 -32 c-30 -29 -32 -35 -26 -72 4 -22 7 -538
6 -1147 -1 -855 2 -1109 11 -1115 7 -4 71 -12 142 -16 224 -15 240 -14 265 8
20 18 22 25 14 85 -4 36 -7 119 -6 185 0 66 1 161 0 210 -3 491 -4 480 15 508
22 35 50 34 72 0 10 -16 38 -49 64 -75 47 -48 55 -56 93 -97 30 -32 99 -104
172 -180 32 -33 63 -61 67 -61 5 0 21 -19 35 -42 15 -24 73 -89 128 -145 56
-56 107 -107 114 -115 70 -71 132 -128 139 -128 5 0 19 -17 31 -39 12 -21 40
-55 62 -75 35 -31 47 -36 89 -36 28 0 62 -5 77 -11 20 -7 66 -7 156 1 96 8
138 8 167 -1 49 -15 88 -5 97 23 5 18 -5 32 -62 82 -38 34 -96 90 -129 126
-93 102 -227 240 -260 269 -16 14 -47 46 -70 70 -152 168 -181 198 -207 213
-15 10 -28 22 -28 27 0 5 -26 35 -57 67 -61 63 -180 194 -191 211 -4 6 -22 18
-40 27 -71 37 -97 142 -46 187 30 27 48 45 139 144 36 39 70 75 75 80 6 6 32
32 58 60 26 27 67 70 91 95 24 25 71 74 104 110 33 36 101 108 152 160 50 52
100 109 111 125 10 17 69 80 130 140 61 61 113 118 117 128 4 11 -1 25 -14 38
-18 18 -29 20 -67 15 -24 -3 -131 -6 -237 -6 l-193 0 -70 -72 c-145 -151 -174
-184 -197 -230 -14 -25 -34 -50 -45 -53 -35 -11 -88 -64 -116 -115 -16 -29
-37 -53 -54 -60 -27 -11 -104 -94 -338 -369 -82 -96 -81 -95 -102 -76 -35 32
-40 91 -40 525 0 271 -4 428 -10 441 -7 11 -20 18 -33 17 -12 -1 -89 -4 -172
-5z"/>
<path d="M31541 9940 c-4 -3 -15 -16 -24 -30 -16 -23 -17 -111 -17 -1177 l0
-1152 29 -16 c19 -9 41 -12 60 -9 17 4 51 1 76 -6 35 -10 55 -10 91 -1 34 9
55 9 80 1 29 -10 39 -9 69 10 19 12 35 27 35 33 1 13 1 2288 0 2299 0 4 -14
17 -31 29 -29 20 -43 22 -196 23 -91 1 -168 -1 -172 -4z"/>
</g>
</svg>
