<?xml version="1.0" standalone="no"?>
<!DOCTYPE svg PUBLIC "-//W3C//DTD SVG 20010904//EN"
 "http://www.w3.org/TR/2001/REC-SVG-20010904/DTD/svg10.dtd">
<svg version="1.0" xmlns="http://www.w3.org/2000/svg"
 width="1080.000000pt" height="1080.000000pt" viewBox="0 0 1080.000000 1080.000000"
 preserveAspectRatio="xMidYMid meet">

<g transform="translate(0.000000,1080.000000) scale(0.100000,-0.100000)"
fill="#000000" stroke="none">
<path d="M3265 6716 c-179 -29 -353 -98 -501 -196 -93 -62 -243 -210 -300
-295 -208 -309 -256 -655 -139 -1000 67 -198 227 -411 406 -540 73 -53 259
-155 281 -155 4 0 8 173 8 385 l0 385 -185 0 c-102 0 -185 3 -185 8 0 4 84 61
185 127 l185 120 0 258 0 257 190 0 190 0 0 -131 c0 -72 3 -129 8 -127 6 3 57
36 366 240 49 33 94 57 101 54 14 -5 214 -133 460 -295 l170 -111 -193 0 -192
0 0 -70 0 -70 85 0 85 0 0 -430 0 -430 75 0 75 0 0 430 0 429 83 3 82 3 9 62
c21 148 -59 398 -192 598 -120 180 -351 357 -563 431 -183 64 -423 88 -594 60z"/>
<path d="M2818 6606 c-285 -128 -519 -358 -659 -647 -147 -301 -171 -686 -64
-1004 71 -213 171 -372 334 -535 124 -123 210 -186 351 -256 69 -35 218 -94
237 -94 2 0 3 20 3 45 l0 46 -62 28 c-143 64 -322 193 -428 308 -170 186 -281
402 -336 653 -26 120 -27 429 -1 548 84 384 312 700 647 896 52 31 91 56 85
56 -5 0 -54 -20 -107 -44z"/>
<path d="M5315 5701 c-114 -30 -159 -96 -160 -236 0 -130 22 -172 163 -312 99
-97 112 -115 127 -165 28 -97 -3 -158 -81 -158 -14 0 -36 11 -49 25 -21 20
-25 34 -25 85 l0 60 -71 0 -71 0 4 -77 c4 -98 31 -158 88 -194 49 -32 128 -44
196 -29 118 26 169 99 169 240 0 121 -27 171 -160 303 -56 56 -109 116 -118
132 -55 109 -14 208 79 190 36 -6 54 -37 54 -95 l0 -40 75 0 75 0 0 40 c0 46
-25 124 -51 162 -38 53 -166 89 -244 69z"/>
<path d="M7675 5701 c-118 -30 -175 -127 -162 -273 8 -94 44 -153 166 -276
119 -119 149 -174 135 -247 -13 -70 -92 -98 -139 -50 -21 20 -25 34 -25 85 l0
61 -72 -3 -73 -3 3 -60 c4 -88 19 -131 59 -175 50 -57 119 -77 209 -62 134 22
189 92 189 242 0 120 -27 172 -152 293 -134 130 -170 201 -143 281 31 95 150
65 150 -39 l0 -45 75 0 75 0 0 40 c0 46 -25 124 -51 162 -37 52 -167 89 -244
69z"/>
<path d="M3290 5200 l0 -500 75 0 75 0 0 500 0 500 -75 0 -75 0 0 -500z"/>
<path d="M3560 5200 l0 -500 70 0 71 0 -2 345 c-1 190 0 348 3 350 2 2 35
-109 72 -248 38 -139 80 -296 95 -349 l26 -98 78 0 77 0 0 500 0 500 -65 0
-65 0 0 -292 c0 -163 -4 -288 -9 -282 -4 5 -21 56 -36 114 -29 110 -86 318
-111 408 l-15 52 -94 0 -95 0 0 -500z"/>
<path d="M4680 5200 l0 -500 75 0 75 0 0 500 0 500 -75 0 -75 0 0 -500z"/>
<path d="M5700 5200 l0 -500 210 0 210 0 0 70 0 70 -135 0 -135 0 0 150 0 150
110 0 110 0 0 70 0 70 -110 0 -110 0 0 140 0 140 135 0 135 0 0 70 0 70 -210
0 -210 0 0 -500z"/>
<path d="M6230 5200 l0 -500 65 0 65 0 0 347 c0 190 2 344 4 342 4 -4 116
-665 116 -683 0 -3 34 -6 75 -6 41 0 75 4 75 9 0 5 9 67 19 138 11 70 34 220
51 333 17 113 32 210 34 215 3 6 5 -149 5 -342 l1 -353 70 0 70 0 0 500 0 500
-105 0 c-100 0 -105 -1 -109 -22 -3 -13 -26 -168 -52 -345 -27 -178 -51 -323
-54 -323 -4 0 -14 48 -23 108 -28 181 -86 536 -92 560 -5 21 -10 22 -110 22
l-105 0 0 -500z"/>
<path d="M7000 5200 l0 -500 210 0 210 0 0 70 0 70 -135 0 -135 0 0 150 0 150
110 0 110 0 0 70 0 70 -110 0 -110 0 0 140 0 140 135 0 135 0 0 70 0 70 -210
0 -210 0 0 -500z"/>
<path d="M8010 5630 l0 -70 85 0 85 0 0 -430 0 -430 75 0 75 0 0 430 0 429 83
3 82 3 3 68 3 67 -246 0 -245 0 0 -70z"/>
<path d="M8635 5678 c-2 -13 -14 -79 -25 -148 -10 -69 -35 -224 -55 -345 -19
-121 -40 -251 -46 -290 -6 -38 -15 -92 -20 -118 -15 -79 -17 -77 60 -77 l69 0
13 90 13 90 97 0 c109 0 103 5 114 -85 12 -101 6 -95 90 -95 71 0 75 1 74 23
0 12 -35 236 -77 497 l-77 475 -112 3 c-110 3 -113 2 -118 -20z m150 -421 c19
-131 35 -240 35 -243 0 -2 -34 -4 -75 -4 -68 0 -75 2 -75 20 0 21 56 403 67
455 3 17 7 26 9 20 2 -5 19 -117 39 -248z"/>
<path d="M5475 4394 c-130 -32 -195 -95 -195 -189 0 -113 72 -166 266 -199 45
-8 93 -22 108 -31 49 -32 46 -99 -6 -138 -34 -25 -125 -34 -185 -18 -41 11
-95 53 -104 80 -4 10 -16 8 -57 -13 l-51 -26 20 -35 c28 -46 81 -89 128 -104
107 -32 237 -21 316 25 57 33 86 81 92 151 10 122 -64 188 -242 219 -49 8
-103 20 -118 26 -52 20 -63 79 -22 118 37 35 145 41 202 12 21 -11 45 -27 52
-36 11 -13 18 -13 57 7 24 11 44 26 44 33 0 23 -42 64 -93 88 -51 25 -166 41
-212 30z"/>
<path d="M8627 4390 c-149 -38 -214 -148 -157 -265 28 -58 88 -88 222 -114
117 -22 155 -40 165 -79 15 -62 -33 -110 -120 -119 -79 -8 -142 11 -188 59
l-37 38 -46 -26 -47 -26 17 -27 c58 -91 129 -125 264 -125 82 0 103 3 154 27
32 15 70 40 83 55 48 56 54 160 12 228 -27 44 -106 82 -210 99 -119 21 -127
23 -149 45 -28 28 -25 71 6 101 23 21 35 24 109 24 78 0 85 -2 122 -31 l39
-32 48 25 48 24 -25 32 c-38 50 -120 87 -202 92 -39 2 -87 0 -108 -5z"/>
<path d="M4084 4377 c-93 -24 -162 -82 -211 -177 -25 -49 -28 -65 -28 -155 0
-83 4 -109 23 -151 49 -109 151 -174 283 -182 177 -10 304 78 345 240 44 170
-34 345 -182 408 -59 26 -165 33 -230 17z m161 -108 c54 -15 118 -82 134 -142
8 -26 12 -73 9 -105 -8 -120 -79 -193 -192 -200 -109 -7 -172 26 -212 112 -43
92 -29 206 35 277 55 62 137 82 226 58z"/>
<path d="M3310 4050 l0 -330 60 0 60 0 0 148 0 147 47 -50 c26 -27 89 -94 140
-147 l94 -98 70 0 c40 0 69 4 67 9 -3 10 -87 100 -227 243 l-85 87 114 123
c63 68 130 140 149 161 l35 37 -76 0 -76 0 -123 -139 -124 -138 -3 138 -3 139
-59 0 -60 0 0 -330z"/>
<path d="M4620 4050 l0 -330 60 0 60 0 2 221 3 221 170 -221 c167 -217 171
-220 208 -221 l37 0 0 330 0 330 -60 0 -60 0 0 -207 c-1 -206 -1 -208 -19
-183 -11 14 -67 86 -126 160 -59 74 -123 156 -143 182 -35 44 -40 47 -84 48
l-48 0 0 -330z"/>
<path d="M5870 4325 l0 -55 105 0 105 0 0 -275 0 -275 60 0 60 0 0 275 0 275
105 0 105 0 0 55 0 55 -270 0 -270 0 0 -55z"/>
<path d="M6490 4051 l0 -331 60 0 60 0 0 110 0 110 63 0 62 0 67 -78 c137
-160 114 -143 197 -140 l72 3 -95 107 c-53 59 -96 111 -96 115 0 5 19 17 42
28 24 11 57 39 75 63 30 40 33 50 33 117 0 66 -3 77 -32 121 -22 32 -49 57
-83 74 -47 24 -59 25 -237 28 l-188 4 0 -331z m389 185 c25 -24 31 -38 31 -74
0 -92 -34 -112 -190 -112 l-110 0 0 111 0 111 119 -3 c117 -4 120 -5 150 -33z"/>
<path d="M7140 4158 c0 -256 8 -294 75 -364 102 -106 303 -112 411 -12 75 69
84 109 84 373 l0 225 -60 0 -60 0 0 -217 c0 -193 -3 -223 -19 -260 -51 -111
-237 -110 -290 1 -19 39 -21 61 -21 259 l0 217 -60 0 -60 0 0 -222z"/>
<path d="M7840 4050 l0 -330 60 0 59 0 3 145 3 145 135 -144 135 -145 73 0
c39 -1 72 2 72 5 0 4 -70 80 -156 171 l-156 164 58 62 c32 34 87 94 123 132
36 39 77 83 90 98 l24 27 -75 0 -76 0 -123 -139 -124 -138 -3 138 -3 139 -59
0 -60 0 0 -330z"/>
<path d="M9080 4050 l0 -330 60 0 60 0 0 330 0 330 -60 0 -60 0 0 -330z"/>
</g>
</svg>
