<?xml version="1.0" standalone="no"?>
<!DOCTYPE svg PUBLIC "-//W3C//DTD SVG 20010904//EN"
 "http://www.w3.org/TR/2001/REC-SVG-20010904/DTD/svg10.dtd">
<svg version="1.0" xmlns="http://www.w3.org/2000/svg"
 width="640.000000pt" height="640.000000pt" viewBox="0 0 640.000000 640.000000"
 preserveAspectRatio="xMidYMid meet">

<g transform="translate(0.000000,640.000000) scale(0.100000,-0.100000)"
fill="#000000" stroke="none">
<path d="M2025 3980 c-3 -5 -2 -10 4 -10 17 0 0 -30 -18 -31 -42 -4 73 -15
139 -14 45 1 67 -1 55 -6 -17 -7 -16 -8 8 -8 15 -1 27 3 27 8 0 5 6 9 13 8 6
0 21 1 32 2 18 2 17 3 -5 13 -55 23 -91 26 -143 12 -51 -14 -52 -13 -70 11
-20 27 -32 31 -42 15z m232 -38 c6 -4 -22 -7 -62 -7 -40 0 -68 3 -62 7 7 4 35
8 62 8 28 0 55 -4 62 -8z"/>
<path d="M1959 3969 c36 -14 19 -21 -27 -11 -23 6 -56 6 -74 2 -31 -7 -29 -8
17 -9 28 -1 65 -5 83 -10 18 -6 30 -6 27 -1 -3 4 1 11 7 13 18 7 -10 27 -37
26 -17 0 -17 -1 4 -10z"/>
<path d="M2108 3973 c6 -2 18 -2 25 0 6 3 1 5 -13 5 -14 0 -19 -2 -12 -5z"/>
<path d="M1797 3939 c-11 -6 -24 -12 -30 -13 -30 -5 -136 -68 -168 -99 -29
-27 -34 -38 -25 -47 8 -10 7 -12 -6 -7 -10 3 -20 1 -24 -5 -4 -7 -3 -8 4 -4 6
4 19 -2 29 -14 21 -24 33 -26 33 -5 0 8 -6 15 -13 15 -8 0 -13 8 -12 18 1 24
47 70 63 64 7 -2 19 1 26 7 8 7 25 9 41 5 20 -5 24 -9 13 -16 -10 -7 -8 -8 7
-6 11 2 21 12 23 22 2 10 0 16 -6 12 -5 -3 -24 -3 -42 0 l-31 7 31 15 c23 11
34 12 43 3 6 -6 17 -11 25 -11 7 0 20 -7 28 -15 9 -8 26 -15 40 -15 15 0 24 6
24 15 0 10 -10 15 -29 15 -34 0 -48 25 -22 39 10 6 22 7 26 3 5 -4 5 -2 1 5
-4 7 -14 9 -23 6 -11 -4 -14 -3 -9 5 9 14 6 15 -17 1z m-122 -79 c-3 -5 -14
-10 -23 -10 -15 0 -15 2 -2 10 20 13 33 13 25 0z"/>
<path d="M1873 3933 c9 -2 23 -2 30 0 6 3 -1 5 -18 5 -16 0 -22 -2 -12 -5z"/>
<path d="M2337 3900 c3 -11 12 -20 19 -20 8 0 19 -10 24 -22 5 -13 9 -18 9
-13 1 6 11 11 22 12 20 2 21 1 3 -12 -11 -7 -16 -17 -11 -21 4 -4 14 1 21 12
11 14 18 16 26 8 9 -9 8 -18 -6 -38 -12 -20 -14 -30 -6 -38 13 -13 42 6 42 29
0 8 4 12 8 9 11 -6 9 -46 -1 -63 -5 -7 -5 -17 -2 -23 4 -6 -6 -10 -24 -10 -24
0 -29 -4 -26 -20 2 -12 -3 -21 -16 -25 -10 -4 -19 -15 -19 -26 0 -11 -7 -19
-16 -19 -9 0 -14 -6 -11 -12 2 -7 10 -12 16 -10 7 1 10 -2 6 -8 -4 -7 -13 -7
-26 1 -12 6 -23 8 -27 5 -3 -3 -1 -6 5 -6 6 0 40 -20 75 -44 49 -34 68 -42 81
-34 10 5 21 7 26 3 5 -3 7 13 4 37 -3 24 -6 49 -6 55 0 7 -8 15 -17 18 -10 3
-25 14 -34 23 -15 17 -14 20 4 40 12 12 27 22 35 22 8 0 15 9 15 20 0 11 7 20
15 20 18 0 20 16 3 26 -6 4 -8 3 -5 -2 3 -5 -3 -10 -14 -10 -11 0 -15 4 -10 9
11 11 3 39 -9 32 -5 -3 -15 3 -22 13 -21 29 -77 64 -89 56 -8 -4 -9 -3 -5 4 4
7 1 12 -7 12 -8 0 -20 7 -27 15 -18 21 -29 19 -23 -5z m143 -289 c-1 -26 -57
-58 -74 -41 -8 8 -7 10 5 5 10 -4 20 -2 24 4 3 6 0 11 -7 11 -9 1 -7 5 4 14
18 13 48 17 48 7z m8 -66 c-8 -8 -47 8 -42 17 3 5 12 7 20 4 8 -3 13 -2 13 2
-3 20 4 24 8 4 3 -13 3 -25 1 -27z m-7 -22 c13 -17 13 -17 -6 -3 -11 8 -22 16
-24 17 -2 2 0 3 6 3 6 0 17 -8 24 -17z"/>
<path d="M1890 3898 c0 -20 47 -29 105 -21 52 7 71 23 28 23 -15 0 -52 3 -80
6 -43 6 -53 4 -53 -8z"/>
<path d="M1730 3880 c0 -5 5 -10 10 -10 6 0 10 5 10 10 0 6 -4 10 -10 10 -5 0
-10 -4 -10 -10z"/>
<path d="M2080 3875 c9 -10 32 -15 76 -15 34 0 66 -5 69 -10 4 -6 12 -7 18 -3
18 11 40 10 62 -4 26 -17 52 -16 59 2 3 9 0 15 -9 15 -8 0 -15 -5 -15 -11 0
-5 -5 -7 -10 -4 -6 4 -8 10 -5 15 3 4 -4 6 -15 3 -11 -3 -20 -1 -20 5 0 12
-49 22 -55 12 -3 -4 -24 -4 -47 1 -24 4 -60 8 -82 9 -33 0 -37 -2 -26 -15z"/>
<path d="M1575 3856 c-13 -13 -27 -21 -31 -17 -4 3 -4 1 -1 -6 4 -6 -5 -15
-23 -22 -17 -5 -30 -17 -30 -25 0 -10 -6 -13 -17 -10 -15 5 -15 4 -3 -4 12 -9
12 -14 -5 -31 -21 -25 -34 -19 -14 5 13 16 12 16 -8 4 -12 -8 -19 -20 -15 -28
3 -10 1 -13 -7 -8 -7 5 -10 2 -9 -6 2 -7 -4 -12 -12 -10 -8 2 -12 1 -8 -3 4
-4 -6 -18 -23 -32 -20 -17 -28 -32 -25 -47 5 -26 -9 -54 -21 -43 -4 5 -3 11 2
15 6 4 11 14 13 22 1 10 -3 9 -13 -5 -8 -10 -14 -24 -12 -29 2 -5 -5 -18 -15
-28 -10 -10 -16 -23 -13 -27 2 -5 -2 -14 -10 -21 -16 -14 -20 -47 -6 -68 5 -9
8 -3 9 17 0 17 8 38 17 47 9 10 13 24 10 38 -5 17 -4 18 4 6 6 -8 8 -22 5 -32
-2 -9 0 -19 5 -23 7 -3 8 0 5 9 -4 10 -1 16 7 16 7 0 9 3 6 7 -4 3 1 16 10 27
18 21 18 21 -4 2 -13 -11 -23 -14 -23 -8 0 6 10 19 23 29 33 26 39 40 27 63
-12 22 -1 27 20 8 12 -11 12 -10 0 5 -12 16 -12 20 0 27 8 5 18 6 22 4 4 -3 8
-1 8 4 0 5 43 53 96 106 54 53 94 96 90 96 -4 0 -18 -11 -31 -24z m-55 -60 c0
-3 -4 -8 -10 -11 -5 -3 -10 -1 -10 4 0 6 5 11 10 11 6 0 10 -2 10 -4z"/>
<path d="M2390 3730 c0 -28 2 -30 20 -20 11 6 20 20 20 30 0 13 -7 20 -20 20
-16 0 -20 -7 -20 -30z"/>
<path d="M1490 3725 c-6 -8 -9 -18 -6 -24 3 -5 -1 -11 -8 -14 -8 -3 -20 -16
-26 -29 l-11 -23 20 24 c16 17 21 19 21 8 0 -9 -4 -19 -10 -22 -5 -3 -10 -16
-10 -28 0 -20 -1 -20 -13 -2 -13 17 -15 16 -30 -13 -9 -19 -11 -32 -5 -32 6 0
8 -6 5 -14 -3 -8 -2 -27 4 -43 l9 -28 -4 29 c-2 16 1 35 8 42 30 34 36 44 36
58 0 8 5 18 12 22 8 5 9 0 6 -14 -4 -12 -2 -22 3 -22 5 0 9 6 9 13 0 8 4 7 10
-3 6 -9 10 -10 10 -3 0 6 -6 18 -14 26 -14 14 -15 75 -1 97 9 15 -1 12 -15 -5z
m-55 -145 c3 -5 1 -10 -4 -10 -6 0 -11 5 -11 10 0 6 2 10 4 10 3 0 8 -4 11
-10z"/>
<path d="M2560 3734 c0 -17 27 -37 34 -25 4 5 2 12 -4 16 -5 3 -10 3 -10 -2 0
-4 -5 -1 -10 7 -5 8 -10 10 -10 4z"/>
<path d="M1528 3723 c-21 -5 -24 -23 -4 -23 8 0 16 7 20 15 3 8 4 14 3 14 -1
-1 -10 -3 -19 -6z"/>
<path d="M1560 3721 c0 -5 5 -13 10 -16 6 -3 10 -2 10 4 0 5 -4 13 -10 16 -5
3 -10 2 -10 -4z"/>
<path d="M2537 3693 c-14 -13 -7 -45 11 -50 10 -2 26 -17 37 -34 23 -33 30
-36 39 -14 3 9 0 15 -8 15 -18 0 -42 30 -50 63 -6 27 -16 34 -29 20z"/>
<path d="M1877 3677 c-3 -8 0 -14 6 -14 7 0 24 -3 38 -6 29 -6 55 6 46 20 -10
15 -84 15 -90 0z"/>
<path d="M2033 3674 c-8 -21 19 -38 30 -18 9 16 1 34 -14 34 -5 0 -12 -7 -16
-16z"/>
<path d="M2117 3683 c-14 -13 -6 -23 18 -23 16 0 25 6 25 15 0 15 -31 21 -43
8z"/>
<path d="M2201 3673 c8 -9 4 -14 -15 -19 -14 -3 -26 -12 -26 -19 0 -8 -7 -20
-15 -29 -14 -13 -12 -14 12 -12 16 2 31 4 34 5 3 0 11 12 17 26 6 14 17 25 25
25 7 0 13 9 14 20 1 16 -4 20 -27 18 -22 -2 -26 -5 -19 -15z"/>
<path d="M2301 3670 c-13 -11 -29 -20 -37 -20 -7 0 -16 -11 -20 -25 -3 -14
-10 -25 -14 -25 -5 0 -21 -5 -37 -11 -36 -15 -63 -18 -69 -7 -7 11 -24 10 -24
-1 0 -5 8 -17 17 -27 16 -15 16 -17 -2 -30 -14 -10 -22 -11 -32 -2 -11 9 -11
14 4 31 17 19 17 19 -2 15 -15 -3 -20 -11 -19 -36 1 -19 -3 -32 -10 -31 -24 3
-34 -2 -32 -16 3 -19 16 -32 16 -16 0 7 4 10 9 7 5 -3 12 1 15 10 3 8 10 13
15 10 5 -4 22 4 38 17 15 13 36 27 46 30 11 4 15 12 11 19 -5 8 -2 9 12 4 10
-4 15 -4 12 -1 -4 4 18 20 49 36 53 28 56 28 70 12 13 -16 13 -16 3 5 -12 25
-14 26 -42 11 -11 -6 -22 -9 -24 -6 -3 2 11 12 31 21 41 20 77 14 68 -11 -4
-10 -2 -14 6 -12 7 3 12 8 12 12 -1 4 -1 18 -1 32 0 31 -34 34 -69 5z m-136
-110 c3 -5 -3 -10 -15 -10 -12 0 -18 5 -15 10 3 6 10 10 15 10 5 0 12 -4 15
-10z"/>
<path d="M2578 3671 c8 -21 32 -46 59 -60 15 -7 20 -17 17 -29 -5 -14 -4 -15
5 -2 9 12 11 10 11 -13 0 -16 4 -26 10 -22 17 10 -14 68 -46 85 -16 9 -31 25
-33 36 -3 16 0 15 17 -6 12 -14 21 -20 22 -14 0 16 -28 38 -50 39 -13 1 -16
-3 -12 -14z"/>
<path d="M2260 3670 c-8 -5 -10 -10 -5 -10 6 0 17 5 25 10 8 5 11 10 5 10 -5
0 -17 -5 -25 -10z"/>
<path d="M1510 3660 c0 -5 5 -10 10 -10 6 0 10 5 10 10 0 6 -4 10 -10 10 -5 0
-10 -4 -10 -10z"/>
<path d="M1803 3659 c-14 -5 -20 -14 -17 -26 2 -10 0 -25 -6 -33 -9 -13 -11
-13 -20 0 -8 12 -10 9 -10 -12 0 -16 5 -28 10 -28 6 0 10 -5 10 -11 0 -5 -4
-7 -10 -4 -5 3 -10 -1 -10 -10 0 -9 3 -14 8 -12 4 3 6 -33 4 -79 -3 -78 -5
-84 -25 -84 -46 0 -65 -5 -60 -13 3 -5 13 -7 22 -4 9 2 22 -2 29 -9 10 -11 16
-10 32 6 17 17 20 36 22 137 l3 118 122 0 c114 0 120 1 111 18 -7 13 -17 17
-36 13 -107 -20 -158 -14 -146 18 7 19 -6 25 -33 15z"/>
<path d="M2077 3643 c-2 -5 -3 -17 -3 -28 1 -11 -3 -24 -9 -28 -6 -5 -4 -7 5
-4 8 2 14 11 12 21 -2 9 2 16 8 16 5 0 10 7 10 15 0 15 -16 21 -23 8z"/>
<path d="M2025 3570 c-3 -5 -1 -10 4 -10 6 0 11 5 11 10 0 6 -2 10 -4 10 -3 0
-8 -4 -11 -10z"/>
<path d="M1389 3553 c0 -5 -2 -15 -4 -23 -16 -75 -16 -76 -2 -40 l14 35 5 -40
c5 -44 -16 -109 -44 -137 -19 -19 -24 -63 -9 -72 4 -3 6 7 4 22 -4 21 -2 24 6
12 8 -12 12 -9 17 18 7 34 17 40 31 20 12 -20 21 81 11 122 -5 19 -12 42 -15
50 -3 8 -5 21 -4 28 1 6 -1 12 -4 12 -3 0 -5 -3 -6 -7z"/>
<path d="M2565 3547 c-4 -11 -3 -23 4 -30 15 -15 19 -7 11 23 -6 22 -8 23 -15
7z"/>
<path d="M2634 3545 c-4 -9 -4 -19 0 -22 3 -4 7 0 7 8 1 8 5 1 9 -16 l8 -30 1
32 c1 35 -16 54 -25 28z"/>
<path d="M2085 3541 c-6 -11 9 -23 19 -14 9 9 7 23 -3 23 -6 0 -12 -4 -16 -9z"/>
<path d="M2020 3525 c0 -8 2 -15 4 -15 2 0 6 7 10 15 3 8 1 15 -4 15 -6 0 -10
-7 -10 -15z"/>
<path d="M2682 3527 c-8 -9 -12 -24 -9 -34 3 -13 5 -11 6 7 l2 25 9 -23 c13
-32 1 -82 -19 -81 -10 0 -12 2 -3 6 6 2 10 9 7 14 -4 5 -17 2 -30 -7 -24 -16
-25 -34 -2 -34 7 0 6 4 -3 11 -11 8 -8 9 15 4 29 -6 69 -34 61 -42 -2 -3 -17
3 -33 12 l-28 17 30 -26 30 -26 -57 0 -58 0 0 -40 0 -40 50 0 50 0 0 -246 0
-245 43 3 42 3 3 243 2 242 45 0 45 0 0 41 0 41 -78 -4 c-57 -2 -79 0 -79 9 0
7 4 10 8 8 4 -3 5 4 2 15 -3 11 -9 18 -13 15 -4 -3 -14 3 -21 12 -12 14 -12
16 2 11 10 -4 16 -1 16 8 0 8 -4 14 -9 14 -4 0 -8 5 -8 11 0 5 5 7 12 3 8 -5
9 -2 3 12 -4 10 -10 32 -14 48 -6 25 -8 27 -19 13z"/>
<path d="M2505 3500 c-5 -8 -4 -11 2 -7 6 4 13 1 16 -7 7 -19 65 -47 73 -35 6
11 -37 29 -50 21 -5 -3 -6 0 -2 6 11 19 69 -7 63 -29 -3 -11 0 -16 8 -13 21 8
25 41 6 48 -62 23 -70 24 -76 8 -5 -13 -7 -13 -19 3 -10 14 -15 15 -21 5z"/>
<path d="M2625 3500 c3 -5 8 -10 11 -10 2 0 4 5 4 10 0 6 -5 10 -11 10 -5 0
-7 -4 -4 -10z"/>
<path d="M1289 3468 c-2 -40 -10 -82 -20 -99 -6 -12 -8 -23 -5 -26 10 -10 37
20 31 34 -2 8 0 24 6 36 9 16 9 22 1 25 -9 3 -9 9 -2 23 7 13 7 19 0 19 -5 0
-10 -6 -11 -12z"/>
<path d="M1232 3391 c-7 -19 -7 -33 -1 -36 5 -4 9 -15 9 -26 0 -10 4 -19 10
-19 5 0 8 6 6 13 -3 6 -7 27 -10 46 -5 30 -4 32 10 20 14 -12 16 -11 13 5 -6
31 -26 29 -37 -3z"/>
<path d="M1599 3368 c-1 -2 -3 -19 -4 -38 -4 -44 3 -70 18 -70 8 0 8 3 -1 12
-20 20 -14 28 19 28 18 0 28 4 24 10 -4 6 -11 7 -17 4 -7 -5 -9 -1 -5 9 5 12
1 17 -13 17 -11 0 -20 5 -20 11 0 6 9 9 20 6 11 -3 18 -1 14 4 -5 8 -32 13
-35 7z"/>
<path d="M1222 3325 c0 -16 2 -22 5 -12 2 9 2 23 0 30 -3 6 -5 -1 -5 -18z"/>
<path d="M2130 3065 l0 -285 40 0 39 0 3 263 c2 144 2 272 0 285 -3 18 -10 22
-43 22 l-39 0 0 -285z"/>
<path d="M2280 3065 l0 -285 40 0 40 0 1 203 0 202 38 -135 c21 -74 46 -166
56 -203 l18 -68 46 3 46 3 0 280 0 280 -37 3 -38 3 0 -162 c0 -93 -4 -159 -9
-154 -4 6 -18 48 -30 95 -13 47 -31 115 -42 153 l-20 67 -54 0 -55 0 0 -285z"/>
<path d="M2920 3065 l0 -285 45 0 45 0 0 285 0 285 -45 0 -45 0 0 -285z"/>
<path d="M1270 3306 c-14 -37 -13 -217 0 -196 8 11 9 8 4 -11 -3 -15 -1 -30 5
-33 6 -4 11 -15 11 -24 0 -15 -2 -15 -10 -2 -8 12 -10 11 -10 -8 0 -13 -6 -35
-14 -51 -9 -17 -11 -32 -5 -42 6 -11 9 -8 9 11 0 39 15 57 34 41 14 -11 16
-11 16 3 0 11 -5 14 -12 10 -8 -5 -9 -2 -5 9 4 10 0 59 -7 110 -9 57 -11 113
-6 147 9 63 5 75 -10 36z"/>
<path d="M1410 3285 c0 -39 3 -46 18 -43 27 5 29 64 3 78 -20 10 -21 8 -21
-35z"/>
<path d="M1775 3310 c-12 -19 -48 -28 -74 -18 -33 12 -39 1 -8 -13 15 -7 24
-16 21 -21 -3 -5 -12 -4 -19 2 -10 8 -15 8 -21 -1 -4 -7 -3 -9 4 -5 6 3 13 2
17 -4 4 -6 13 -5 25 2 10 7 16 16 13 22 -4 5 1 7 9 3 16 -6 56 28 46 39 -3 3
-9 0 -13 -6z"/>
<path d="M3234 3309 c-39 -11 -54 -28 -65 -76 -14 -63 4 -103 76 -174 74 -72
93 -114 73 -156 -29 -61 -108 -32 -108 39 0 24 -4 28 -26 28 -25 0 -26 -2 -21
-40 10 -79 57 -117 129 -105 65 11 102 86 79 158 -6 18 -43 65 -81 104 -66 66
-70 73 -70 116 0 49 16 67 59 67 24 0 51 -36 51 -67 0 -18 6 -23 25 -23 18 0
25 5 25 20 0 27 -23 82 -41 96 -21 17 -70 24 -105 13z"/>
<path d="M4354 3309 c-39 -11 -54 -28 -65 -76 -14 -63 4 -103 76 -174 74 -72
93 -114 73 -156 -29 -61 -108 -32 -108 39 0 24 -4 28 -26 28 -25 0 -26 -2 -21
-40 10 -79 57 -117 129 -105 65 11 102 86 79 158 -6 18 -43 65 -81 104 -66 66
-70 73 -70 116 0 49 16 67 59 67 24 0 51 -36 51 -67 0 -18 6 -23 25 -23 18 0
25 5 25 20 0 27 -23 82 -41 96 -21 17 -70 24 -105 13z"/>
<path d="M3430 3070 l0 -240 100 0 c93 0 100 1 100 20 0 17 -8 19 -72 22 l-73
3 -3 88 -3 87 61 0 c57 0 60 1 60 25 0 24 -3 25 -60 25 l-61 0 3 81 3 81 70 2
c64 1 70 3 73 24 3 22 1 22 -97 22 l-101 0 0 -240z"/>
<path d="M3680 3071 c0 -234 1 -241 20 -241 19 0 20 7 21 188 0 103 4 178 8
167 4 -11 23 -95 42 -187 33 -165 34 -168 59 -168 26 0 27 3 59 168 18 92 36
176 41 187 5 12 9 -54 9 -167 1 -181 2 -188 21 -188 19 0 20 7 20 240 l0 240
-34 0 c-39 0 -34 13 -82 -233 -15 -75 -29 -135 -32 -132 -3 3 -22 85 -42 183
l-36 177 -37 3 -37 3 0 -240z"/>
<path d="M4040 3070 l0 -240 100 0 c93 0 100 1 100 20 0 17 -8 19 -72 22 l-73
3 -3 88 -3 87 61 0 c57 0 60 1 60 25 0 24 -3 25 -60 25 l-60 0 0 79 c0 88 2
91 65 84 56 -6 85 3 85 27 0 19 -7 20 -100 20 l-100 0 0 -240z"/>
<path d="M4532 3288 c2 -19 9 -23 43 -24 l40 0 3 -217 2 -217 25 0 25 0 0 215
0 215 38 1 c20 1 40 1 45 0 4 0 7 10 7 24 l0 25 -116 0 c-114 0 -115 0 -112
-22z"/>
<path d="M4811 3083 c-24 -124 -45 -232 -48 -240 -3 -9 3 -13 21 -13 26 0 29
7 38 65 3 17 12 20 71 23 64 3 67 2 67 -20 0 -47 12 -68 36 -68 29 0 29 -6 5
116 -11 55 -29 151 -41 214 -29 159 -25 150 -69 150 l-37 0 -43 -227z m108 26
c11 -65 21 -122 21 -128 0 -12 -100 -16 -100 -3 -1 26 46 260 51 254 3 -4 16
-59 28 -123z"/>
<path d="M1356 3244 c-11 -28 -6 -54 9 -54 10 0 15 10 15 29 0 34 -15 49 -24
25z"/>
<path d="M1607 3243 c-9 -2 -15 -9 -12 -14 9 -14 22 -11 29 6 3 8 4 14 3 14
-1 -1 -10 -3 -20 -6z"/>
<path d="M1643 3227 c-4 -7 -19 -21 -33 -30 -13 -9 -18 -17 -11 -17 19 0 73
48 62 55 -6 3 -13 -1 -18 -8z"/>
<path d="M1238 3163 c-3 -39 0 -75 6 -85 16 -26 29 -22 14 5 -7 13 -11 48 -9
85 4 84 -6 79 -11 -5z"/>
<path d="M1406 3202 c-3 -6 -2 -13 4 -17 5 -3 10 -17 10 -31 0 -14 4 -23 10
-19 5 3 7 12 4 20 -4 8 3 15 18 17 12 2 24 11 26 20 3 17 -13 19 -37 4 -8 -5
-16 -4 -21 4 -5 8 -10 9 -14 2z"/>
<path d="M1216 3130 c2 -41 5 -86 7 -100 3 -14 5 -29 6 -33 1 -12 31 19 31 32
0 6 -4 11 -9 11 -13 0 -24 36 -32 105 -6 57 -6 56 -3 -15z"/>
<path d="M1534 3182 c-6 -4 -16 -17 -23 -29 -13 -25 -1 -38 28 -28 11 3 22 1
26 -5 10 -16 32 -12 32 6 0 10 -7 14 -19 11 -21 -6 -23 3 -5 22 10 11 7 12
-15 7 -34 -8 -37 1 -5 14 12 5 15 9 7 9 -8 0 -20 -3 -26 -7z m3 -48 c-3 -3
-12 -4 -19 -1 -8 3 -5 6 6 6 11 1 17 -2 13 -5z"/>
<path d="M1397 3149 c3 -12 0 -25 -7 -29 -8 -5 -10 -15 -5 -26 10 -22 12 -30
14 -45 0 -5 6 -7 12 -3 7 4 10 1 7 -7 -6 -17 30 -89 48 -96 8 -3 12 -9 9 -13
-6 -10 24 -35 32 -26 4 4 1 11 -6 15 -7 5 -10 14 -7 20 4 6 12 8 18 5 7 -4 8
-2 4 5 -4 6 -12 9 -17 6 -5 -4 -9 -2 -9 4 0 5 -9 13 -20 16 -11 3 -20 13 -20
21 0 8 -7 17 -15 20 -8 4 -12 10 -9 15 2 5 0 18 -6 29 -9 17 -8 19 7 14 13 -4
15 -3 5 4 -8 5 -16 28 -19 51 -3 22 -9 41 -13 41 -5 0 -6 -9 -3 -21z m13 -49
c0 -5 -2 -10 -4 -10 -3 0 -8 5 -11 10 -3 6 -1 10 4 10 6 0 11 -4 11 -10z"/>
<path d="M1370 3140 c0 -5 5 -10 11 -10 5 0 7 5 4 10 -3 6 -8 10 -11 10 -2 0
-4 -4 -4 -10z"/>
<path d="M1610 3129 c0 -9 42 -19 52 -13 18 11 6 23 -22 21 -16 -1 -30 -5 -30
-8z"/>
<path d="M1741 3128 c19 -15 30 -43 22 -52 -4 -3 -12 -1 -19 4 -13 12 -144 2
-144 -10 0 -3 -21 -7 -46 -9 -25 -1 -56 -6 -70 -11 -39 -15 -27 -60 17 -60 5
0 15 11 21 25 17 39 52 30 55 -13 1 -17 -3 -30 -8 -26 -5 3 -9 1 -9 -5 0 -6 9
-15 20 -21 17 -9 20 -6 25 24 4 18 5 44 3 57 -2 19 2 25 20 27 13 2 29 -1 36
-8 8 -6 28 -12 44 -15 23 -2 29 0 25 11 -3 8 1 14 10 14 12 0 16 -19 19 -97 2
-54 0 -106 -5 -116 -5 -12 -4 -23 3 -33 7 -7 10 -20 7 -29 -5 -12 -10 -12 -33
0 -14 7 -32 11 -38 9 -7 -3 -12 6 -11 23 0 21 -6 28 -25 33 -14 3 -25 12 -25
20 0 8 -8 16 -17 18 -10 2 -18 -2 -18 -8 0 -6 -4 -8 -10 -5 -6 4 -7 -1 -3 -12
6 -16 5 -17 -13 -3 -19 14 -19 14 0 -8 11 -12 14 -22 9 -22 -19 0 -36 29 -25
43 15 18 19 69 6 74 -6 2 -24 -13 -39 -33 -16 -21 -23 -34 -17 -30 7 4 12 3
12 -2 0 -16 74 -84 102 -94 16 -6 26 -14 23 -19 -3 -4 12 -17 35 -29 22 -11
40 -16 40 -11 0 5 -6 12 -12 14 -8 3 -6 6 5 6 9 1 17 -3 17 -9 0 -5 5 -10 10
-10 20 0 9 21 -17 33 -19 9 -27 9 -30 0 -2 -6 -13 -9 -24 -6 -15 4 -17 9 -9
18 11 13 33 10 82 -10 23 -9 21 -55 -2 -47 -8 3 -12 2 -9 -2 4 -4 16 -8 28
-11 l21 -4 -2 217 -3 217 -25 3 c-22 3 -23 2 -9 -10z m-102 -285 c-4 -25 3
-43 17 -43 8 0 13 -4 9 -9 -7 -13 -70 13 -69 28 3 28 5 31 24 31 11 0 19 -3
19 -7z"/>
<path d="M1299 2938 c-1 -18 0 -37 1 -43 1 -5 3 -17 3 -25 0 -8 6 -23 14 -32
11 -13 12 -21 3 -37 -9 -18 -7 -25 14 -45 13 -14 22 -27 19 -29 -2 -3 31 -42
74 -87 60 -63 79 -77 80 -62 1 13 -4 19 -15 18 -19 -1 -24 28 -9 59 9 19 8 18
-14 -2 l-24 -22 -21 24 c-14 15 -18 27 -12 33 6 6 5 13 -3 17 -7 5 -10 4 -6
-2 3 -5 0 -10 -8 -10 -12 0 -12 3 -2 16 10 12 9 14 -5 8 -25 -9 -22 0 3 14 13
7 19 7 15 1 -3 -6 -2 -13 3 -16 5 -3 11 3 14 14 3 13 1 18 -6 13 -6 -4 -8 0
-4 10 4 10 2 16 -6 14 -7 -1 -12 5 -12 13 0 9 -10 32 -22 51 -11 20 -27 53
-34 73 -7 20 -17 36 -22 36 -5 0 -7 7 -3 15 3 8 1 15 -4 15 -6 0 -11 -15 -11
-32z m37 -56 c-9 -8 -26 10 -26 26 1 15 2 15 15 -2 8 -11 13 -21 11 -24z m13
-38 c3 -16 1 -17 -13 -5 -19 16 -21 34 -3 29 6 -3 14 -13 16 -24z m24 -80 c-4
-10 0 -12 11 -8 23 9 20 -9 -5 -24 -12 -8 -18 -9 -15 -3 9 13 -23 63 -35 55
-15 -9 -10 3 8 17 11 10 14 10 9 2 -4 -7 -2 -13 3 -13 6 0 11 10 12 23 1 19 2
18 9 -6 5 -16 6 -35 3 -43z"/>
<path d="M1270 2921 c-10 -21 -4 -51 11 -51 5 0 9 7 9 16 0 8 -4 12 -10 9 -13
-8 -13 1 0 26 6 10 8 19 6 19 -3 0 -10 -9 -16 -19z"/>
<path d="M1685 2879 c-8 -12 11 -29 33 -29 19 0 10 34 -10 38 -9 2 -19 -2 -23
-9z"/>
<path d="M1290 2832 c6 -13 14 -21 18 -18 3 4 -2 14 -12 24 -18 16 -18 16 -6
-6z"/>
<path d="M1428 2718 c-9 -21 7 -42 23 -33 11 6 12 5 2 -6 -18 -18 -16 -34 2
-19 19 16 19 23 -3 50 -15 19 -20 20 -24 8z"/>
<path d="M1485 2640 c-3 -5 -2 -10 4 -10 5 0 13 5 16 10 3 6 2 10 -4 10 -5 0
-13 -4 -16 -10z"/>
<path d="M3040 2643 c-58 -19 -88 -61 -75 -103 7 -23 60 -60 85 -60 8 0 32 -5
53 -11 29 -8 37 -15 37 -32 0 -34 -19 -47 -67 -47 -30 0 -49 6 -63 20 -16 16
-24 18 -40 10 -44 -24 28 -80 103 -80 83 0 129 43 119 111 -6 38 -36 58 -109
73 -50 9 -58 15 -61 35 -2 13 2 28 10 32 21 14 72 10 94 -6 18 -12 24 -12 40
-1 15 12 16 16 5 30 -21 25 -94 42 -131 29z"/>
<path d="M4420 2639 c-44 -18 -60 -40 -60 -81 0 -32 5 -41 31 -57 17 -10 52
-22 79 -25 34 -5 53 -13 60 -26 13 -24 13 -26 -6 -44 -22 -23 -86 -20 -117 4
-14 11 -32 17 -41 14 -42 -16 9 -71 76 -80 84 -12 148 28 148 91 0 32 -39 72
-77 80 -80 17 -103 26 -103 43 0 41 64 57 107 27 24 -17 53 -11 53 11 0 35
-100 64 -150 43z"/>
<path d="M2090 2495 l0 -145 25 0 c24 0 25 3 25 60 0 33 2 60 4 60 3 0 30 -27
62 -60 49 -51 62 -60 93 -60 l35 0 -71 73 -72 72 65 73 66 72 -34 -1 c-27 -1
-41 -11 -83 -59 -27 -32 -53 -59 -57 -59 -5 -1 -8 26 -8 59 0 57 -1 60 -25 60
l-25 0 0 -145z"/>
<path d="M2401 2622 c-51 -27 -73 -74 -68 -145 3 -51 8 -62 40 -95 34 -33 41
-36 96 -37 69 0 105 20 134 76 23 43 19 125 -9 161 -41 56 -129 74 -193 40z
m143 -63 c82 -98 -45 -230 -135 -140 -33 34 -39 83 -14 131 17 34 27 38 82 39
34 1 46 -4 67 -30z"/>
<path d="M2670 2495 l0 -145 25 0 c24 0 24 1 27 96 l3 95 75 -95 c105 -135
110 -132 110 49 l0 145 -25 0 c-24 0 -24 -2 -27 -92 l-3 -93 -74 93 c-46 58
-80 92 -92 92 -18 0 -19 -9 -19 -145z"/>
<path d="M3227 2633 c-4 -3 -7 -15 -7 -25 0 -15 8 -18 45 -18 l45 0 0 -120 0
-120 30 0 30 0 0 120 0 120 45 0 c41 0 45 2 45 25 l0 25 -113 0 c-63 0 -117
-3 -120 -7z"/>
<path d="M3500 2495 l0 -145 25 0 c23 0 25 3 25 50 0 46 2 50 24 50 17 0 38
-16 68 -51 37 -42 49 -50 72 -47 l29 3 -37 43 c-37 45 -44 62 -26 62 24 0 50
41 50 78 0 74 -46 102 -167 102 l-63 0 0 -145z m154 85 c20 -7 26 -17 26 -39
0 -37 -23 -51 -84 -51 l-46 0 0 50 0 50 39 0 c22 0 51 -4 65 -10z"/>
<path d="M3782 2525 c3 -114 3 -115 35 -147 27 -26 40 -32 81 -32 103 -2 132
41 132 193 l0 101 -25 0 c-25 0 -25 0 -25 -99 0 -84 -3 -102 -21 -125 -15 -19
-30 -26 -54 -26 -24 0 -39 7 -54 26 -18 23 -21 41 -21 125 l0 99 -26 0 -26 0
4 -115z"/>
<path d="M4090 2495 l0 -145 25 0 c24 0 25 3 25 62 l0 62 64 -63 c52 -51 68
-62 91 -59 28 3 28 3 -37 73 l-66 70 38 45 c21 25 47 54 59 64 28 26 26 36 -6
36 -22 0 -41 -15 -85 -62 l-57 -63 -1 63 c0 59 -1 62 -25 62 l-25 0 0 -145z"/>
<path d="M4630 2495 l0 -145 25 0 25 0 0 145 0 145 -25 0 -25 0 0 -145z"/>
<path d="M1493 2623 c-7 -3 -13 -9 -13 -15 0 -6 6 -8 14 -5 18 7 34 -12 31
-35 -2 -11 2 -15 12 -11 12 5 12 7 1 14 -10 7 -10 9 0 9 23 0 27 -2 24 -13 -2
-5 2 -13 8 -17 8 -5 6 -9 -5 -13 -9 -4 -13 -3 -10 3 3 6 1 10 -4 10 -18 0 -12
-19 9 -30 11 -6 19 -7 18 -3 -2 4 2 8 7 8 6 0 9 -4 7 -10 -2 -5 2 -4 9 3 22
21 33 13 13 -10 -10 -13 -12 -17 -4 -10 21 18 35 15 19 -5 -12 -15 -12 -16 1
-8 8 5 25 9 37 10 12 0 25 3 29 8 4 4 2 7 -5 7 -7 0 -27 11 -45 25 -26 20 -35
22 -46 12 -10 -10 -12 -9 -7 5 4 12 -4 26 -30 45 -37 28 -50 33 -70 26z m53
-30 c-7 -7 -26 7 -26 19 0 6 6 6 15 -2 9 -7 13 -15 11 -17z m119 -83 c3 -5 2
-10 -4 -10 -5 0 -13 5 -16 10 -3 6 -2 10 4 10 5 0 13 -4 16 -10z"/>
<path d="M1714 2492 c3 -6 -3 -13 -14 -17 -11 -3 -20 -11 -20 -16 0 -6 7 -6
19 1 11 5 28 10 38 10 15 -1 13 -4 -7 -16 -25 -15 -25 -15 -1 -8 13 3 21 2 18
-3 -3 -5 6 -9 21 -10 24 -2 24 -1 7 7 -11 5 -14 9 -7 9 11 1 11 3 0 14 -18 19
-62 42 -54 29z"/>
</g>
</svg>
